<svg width="181" height="151" viewBox="0 0 181 151" fill="none" xmlns="http://www.w3.org/2000/svg">
<path d="M11.2548 130.337C8.96202 130.337 7.20874 131.038 5.99493 132.468C4.78112 133.898 4.18768 135.867 4.18768 138.375C4.18768 139.481 4.32257 140.587 4.61928 141.666C4.86204 142.583 5.32057 143.446 5.91399 144.202C6.48044 144.903 7.20873 145.469 8.04491 145.847C8.98899 146.252 9.98701 146.467 11.012 146.44C11.6324 146.44 12.2258 146.413 12.8462 146.359C13.2508 146.332 13.6554 146.252 14.06 146.144V138.159H18.1061V148.841C17.189 149.138 16.2449 149.38 15.2738 149.542C13.7633 149.812 12.2258 149.947 10.6883 149.92C9.17781 149.947 7.69425 149.677 6.29163 149.138C4.9969 148.652 3.86401 147.897 2.91993 146.899C1.94888 145.847 1.2206 144.633 0.762048 143.284C0.222576 141.693 -0.0471725 140.021 0.00677468 138.348C-0.0201989 136.676 0.27653 135.004 0.869949 133.412C1.38245 132.063 2.19165 130.823 3.18967 129.771C4.16072 128.773 5.34756 128.017 6.66927 127.505C8.01794 126.992 9.44753 126.723 10.9041 126.723C11.8212 126.723 12.7383 126.777 13.6554 126.938C14.3567 127.046 15.0311 127.208 15.7324 127.397C16.2179 127.532 16.7034 127.721 17.162 127.936C17.5396 128.125 17.8093 128.26 17.9442 128.341L16.7304 131.632C15.9751 131.2 15.1659 130.877 14.3298 130.661C13.2778 130.445 12.2528 130.31 11.2548 130.337Z" fill="#EEEEEE"/>
<path d="M30.784 130.553C29.9208 130.553 29.1386 130.58 28.4103 130.661V137.836H30.1636C31.0267 137.836 31.9168 137.782 32.78 137.674C33.4274 137.594 34.0747 137.405 34.6412 137.108C35.1267 136.865 35.5044 136.461 35.7741 136.002C36.0438 135.436 36.1787 134.842 36.1517 134.222C36.1787 133.628 36.0438 133.035 35.7741 132.496C35.5044 132.037 35.1267 131.632 34.6681 131.39C34.1287 131.093 33.5623 130.904 32.9419 130.796C32.2406 130.607 31.5123 130.553 30.784 130.553ZM30.5142 127.047C33.7241 127.047 36.1787 127.64 37.878 128.8C39.5773 129.987 40.4405 131.767 40.4405 134.195C40.4405 137.216 38.957 139.239 35.9629 140.318C36.3675 140.803 36.826 141.397 37.3385 142.125C37.851 142.826 38.3635 143.582 38.903 144.418C39.4425 145.227 39.955 146.09 40.4405 146.953C40.926 147.817 41.3846 148.68 41.7622 149.516H37.2576C36.853 148.734 36.4214 147.978 35.9359 147.196C35.4504 146.414 34.9918 145.659 34.5063 144.93C34.0208 144.202 33.5353 143.501 33.0767 142.853C32.6182 142.206 32.1596 141.613 31.755 141.1C31.4583 141.127 31.1886 141.127 30.9728 141.127H28.4103V149.516H24.3643V127.613C25.3893 127.398 26.4412 127.236 27.4932 127.182C28.6261 127.101 29.6241 127.047 30.5142 127.047Z" fill="#EEEEEE"/>
<path d="M49.5301 138.376C49.5031 139.509 49.6649 140.615 49.9886 141.694C50.2583 142.611 50.6899 143.474 51.2833 144.229C51.8498 144.931 52.5511 145.47 53.3603 145.848C54.2234 146.252 55.1675 146.441 56.1116 146.414C57.0557 146.414 57.9728 146.225 58.8359 145.848C59.6451 145.47 60.3464 144.931 60.9129 144.229C61.5063 143.474 61.9379 142.611 62.2076 141.694C62.8011 139.536 62.8011 137.243 62.2076 135.058C61.9379 134.141 61.5063 133.278 60.9129 132.523C60.3464 131.821 59.6451 131.282 58.8359 130.904C57.9728 130.5 57.0557 130.311 56.1116 130.338C55.1675 130.311 54.2234 130.527 53.3603 130.904C52.5511 131.282 51.8498 131.848 51.2833 132.55C50.6899 133.305 50.2583 134.168 49.9886 135.085C49.6649 136.137 49.5301 137.243 49.5301 138.376ZM66.901 138.376C66.928 140.102 66.6583 141.802 66.0379 143.42C65.5254 144.769 64.7431 146.009 63.7181 147.061C62.7471 148.033 61.5872 148.788 60.2925 149.246C58.9708 149.759 57.5412 150.002 56.1116 150.002C54.682 150.002 53.2524 149.759 51.9307 149.246C50.6359 148.761 49.4761 148.033 48.505 147.061C47.4801 146.009 46.6978 144.796 46.1853 143.42C45.0255 140.156 45.0255 136.623 46.1853 133.359C46.6978 131.983 47.507 130.769 48.532 129.717C49.5031 128.746 50.6899 127.991 51.9846 127.506C54.655 126.535 57.5951 126.535 60.2655 127.506C61.5602 127.991 62.7201 128.746 63.6912 129.717C64.7162 130.769 65.4984 132.01 66.0109 133.359C66.6313 134.95 66.928 136.65 66.901 138.376Z" fill="#EEEEEE"/>
<path d="M77.7986 127.289C78.2572 128.098 78.7967 129.096 79.3631 130.283C79.9295 131.47 80.523 132.683 81.1164 133.978C81.7098 135.273 82.3032 136.595 82.8966 137.916C83.49 139.238 84.0295 140.479 84.515 141.612C85.0006 140.479 85.54 139.238 86.1065 137.916C86.6729 136.595 87.2664 135.273 87.8598 133.978C88.4532 132.683 89.0466 131.443 89.6131 130.283C90.1795 129.123 90.7189 128.125 91.1775 127.289H94.8189C95.0077 128.907 95.1966 130.633 95.3854 132.468C95.5742 134.302 95.7091 136.163 95.8709 138.051C96.0058 139.939 96.1406 141.881 96.2485 143.823C96.3564 145.766 96.4643 147.627 96.5452 149.488H92.5801C92.4992 146.898 92.3913 144.228 92.2834 141.504C92.1755 138.779 91.9867 136.109 91.744 133.547C91.5012 134.032 91.2314 134.625 90.9078 135.3C90.5841 135.974 90.2604 136.729 89.8828 137.539C89.5052 138.348 89.1275 139.157 88.7499 140.02C88.3722 140.883 87.9946 141.693 87.6709 142.502C87.3203 143.311 86.9966 144.039 86.6999 144.741C86.4032 145.415 86.1334 146.035 85.9177 146.521H82.8966C82.6808 146.035 82.4381 145.415 82.1414 144.741C81.8446 144.039 81.521 143.284 81.1703 142.475L80.0914 139.993C79.7137 139.13 79.3361 138.321 78.9585 137.539C78.5809 136.756 78.2572 136.001 77.9335 135.3C77.6098 134.599 77.3401 134.032 77.0973 133.547C76.8546 136.109 76.6657 138.752 76.5578 141.504C76.45 144.228 76.3421 146.898 76.2342 149.488H72.269C72.35 147.654 72.4579 145.739 72.5657 143.77C72.6736 141.8 72.8085 139.858 72.9703 137.916C73.1052 135.974 73.2671 134.113 73.4559 132.306C73.6177 130.499 73.8065 128.826 74.0223 127.262L77.7986 127.289Z" fill="#EEEEEE"/>
<path d="M111.138 131.577C110.652 132.71 110.086 134.086 109.439 135.704C108.818 137.323 108.144 139.103 107.47 140.991H114.806C114.132 139.076 113.458 137.323 112.81 135.677C112.19 134.032 111.623 132.656 111.138 131.577ZM117.693 149.488C117.396 148.598 117.072 147.735 116.748 146.872C116.425 146.008 116.128 145.145 115.804 144.255H106.418C106.121 145.145 105.797 146.035 105.5 146.898C105.204 147.762 104.88 148.625 104.583 149.488H100.375C101.212 147.114 101.994 144.929 102.749 142.906C103.504 140.883 104.233 138.995 104.934 137.188C105.662 135.381 106.364 133.681 107.065 132.063C107.766 130.445 108.495 128.826 109.25 127.262H113.107C113.862 128.853 114.591 130.445 115.292 132.063C115.993 133.681 116.721 135.408 117.423 137.188C118.151 138.968 118.879 140.883 119.635 142.906C120.39 144.929 121.199 147.114 122.035 149.488H117.693Z" fill="#EEEEEE"/>
<path d="M130.505 127.289H126.459V149.488H130.505V127.289Z" fill="#EEEEEE"/>
<path d="M141.483 146.171C141.726 146.198 142.023 146.198 142.4 146.225C142.778 146.225 143.317 146.225 143.965 146.225C146.689 146.225 148.712 145.524 150.034 144.148C151.382 142.772 152.03 140.83 152.03 138.349C152.03 135.84 151.382 133.898 150.061 132.549C148.766 131.201 146.743 130.526 143.992 130.526C143.128 130.499 142.265 130.553 141.429 130.634V146.171H141.483ZM156.292 138.376C156.319 140.102 156.022 141.801 155.401 143.393C154.835 144.768 153.972 145.982 152.839 146.953C151.679 147.924 150.33 148.652 148.874 149.057C147.201 149.543 145.475 149.758 143.722 149.758C142.832 149.758 141.807 149.731 140.674 149.65C139.595 149.596 138.489 149.435 137.437 149.192V127.613C138.516 127.37 139.595 127.208 140.701 127.155C141.861 127.101 142.886 127.047 143.776 127.074C145.502 127.047 147.228 127.262 148.874 127.721C150.33 128.126 151.679 128.8 152.839 129.771C153.972 130.715 154.835 131.929 155.401 133.304C156.022 134.896 156.345 136.622 156.292 138.376Z" fill="#EEEEEE"/>
<path d="M170.021 131.577C169.536 132.71 168.969 134.086 168.349 135.704C167.729 137.322 167.054 139.103 166.38 140.991H173.69C173.015 139.076 172.341 137.322 171.694 135.677C171.073 134.032 170.507 132.656 170.021 131.577ZM176.576 149.488C176.279 148.597 175.955 147.734 175.632 146.871C175.308 146.008 174.984 145.145 174.688 144.255H165.301C165.004 145.145 164.68 146.035 164.384 146.898C164.087 147.761 163.763 148.624 163.467 149.488H159.259C160.095 147.114 160.877 144.929 161.632 142.906C162.388 140.91 163.116 138.995 163.817 137.188C164.546 135.38 165.247 133.681 165.948 132.063C166.65 130.444 167.378 128.826 168.133 127.234H171.99C172.746 128.826 173.474 130.417 174.175 132.036C174.876 133.654 175.605 135.38 176.306 137.161C177.034 138.941 177.763 140.856 178.518 142.879C179.273 144.902 180.082 147.087 180.919 149.461H176.576V149.488Z" fill="#EEEEEE"/>
<path fill-rule="evenodd" clip-rule="evenodd" d="M81.0354 22.928C83.463 24.4116 86.7538 25.2477 90.9077 25.4366H91.2044C94.738 25.6254 98.0557 27.1898 100.51 29.7523C102.938 32.3148 104.314 35.7135 104.314 39.274H109.331C109.331 35.9562 108.467 32.6924 106.795 29.8332C105.123 26.974 102.749 24.5734 99.8629 22.928C102.749 21.2826 105.123 18.9089 106.795 16.0228C108.467 13.1636 109.331 9.89978 109.331 6.58203H104.314C104.26 10.2235 102.776 13.6761 100.187 16.2116C97.5971 18.7471 94.0906 20.1767 90.4761 20.1767C86.8347 20.1767 83.3551 18.7471 80.7656 16.2116C78.1762 13.6761 76.6926 10.1965 76.6387 6.58203H71.6216C71.6216 9.89978 72.4847 13.1636 74.1571 16.0228C75.7755 18.9089 78.1492 21.2826 81.0354 22.928Z" fill="#0057B8"/>
<path fill-rule="evenodd" clip-rule="evenodd" d="M90.4492 0C91.8248 0 93.2005 0.4046 94.3334 1.15986C95.4932 1.91512 96.3833 3.02104 96.9228 4.28879C97.4623 5.55655 97.5972 6.95918 97.3274 8.33483C97.0577 9.68351 96.3834 10.9513 95.4123 11.9223C94.4413 12.8934 93.1735 13.5677 91.8248 13.8374C90.4761 14.1072 89.0465 13.9723 87.7788 13.4328C86.511 12.8934 85.4051 12.0032 84.6229 10.8434C83.8406 9.68351 83.436 8.33483 83.436 6.95918C83.436 5.098 84.1643 3.34472 85.486 2.02302C86.8077 0.75526 88.588 0 90.4492 0Z" fill="#0057B8"/>
<path fill-rule="evenodd" clip-rule="evenodd" d="M99.8631 94.4339C97.4354 92.9503 94.1447 92.1141 89.9907 91.9253H89.694C86.1605 91.7365 82.8427 90.199 80.3881 87.6096C77.9605 85.0471 76.5848 81.6484 76.6118 78.0879H71.5947C71.5947 81.4056 72.4579 84.6694 74.1302 87.5286C75.8026 90.3878 78.1763 92.7885 81.0624 94.4339C78.1763 96.0793 75.8026 98.4799 74.1302 101.339C72.4579 104.198 71.5947 107.462 71.5947 110.78H76.6118C76.6658 107.138 78.1493 103.686 80.7388 101.15C83.3282 98.6148 86.8348 97.1852 90.4493 97.1852C94.0637 97.1852 97.5703 98.6148 100.16 101.15C102.749 103.686 104.233 107.165 104.287 110.78H109.304C109.304 107.462 108.441 104.198 106.768 101.312C105.123 98.4799 102.749 96.0793 99.8631 94.4339Z" fill="#FFD700"/>
<path fill-rule="evenodd" clip-rule="evenodd" d="M90.4492 117.363C89.0735 117.363 87.6979 116.958 86.565 116.176C85.4051 115.42 84.515 114.315 83.9755 113.047C83.436 111.779 83.3012 110.376 83.5709 109.001C83.8406 107.652 84.515 106.411 85.486 105.413C86.4571 104.442 87.7248 103.768 89.0735 103.498C90.4222 103.228 91.8518 103.363 93.1195 103.903C94.3873 104.442 95.4932 105.332 96.2485 106.465C97.0307 107.625 97.4353 108.974 97.4353 110.349C97.4353 111.267 97.2465 112.184 96.8958 113.02C96.5452 113.856 96.0327 114.638 95.3853 115.286C94.738 115.933 93.9557 116.445 93.1195 116.796C92.2834 117.201 91.3663 117.363 90.4492 117.363Z" fill="#FFD700"/>
<path fill-rule="evenodd" clip-rule="evenodd" d="M109.115 26.7845C109.789 29.5358 111.516 32.449 114.321 35.5509L114.537 35.7667C116.883 38.4101 118.151 41.8358 118.043 45.3693C117.935 48.9029 116.506 52.2746 113.997 54.7561L117.558 58.2897C119.904 55.943 121.604 53.0298 122.467 49.82C123.33 46.6101 123.33 43.2384 122.44 40.0286C125.65 40.8917 129.021 40.8917 132.231 40.0555C135.441 39.1924 138.381 37.52 140.728 35.1733L137.167 31.6398C134.551 34.2023 131.044 35.6049 127.403 35.5779C123.762 35.551 120.255 34.0944 117.665 31.5319C115.076 28.9424 113.619 25.4628 113.619 21.8214C113.592 18.18 115.022 14.6734 117.585 12.057L114.024 8.52344C111.677 10.8701 109.978 13.7833 109.115 16.9931C108.225 20.203 108.225 23.5747 109.115 26.7845Z" fill="#0057B8"/>
<path fill-rule="evenodd" clip-rule="evenodd" d="M131.988 17.1828C132.96 18.1539 133.634 19.3946 133.904 20.7703C134.173 22.119 134.038 23.5216 133.499 24.8163C132.96 26.0841 132.069 27.19 130.91 27.9452C129.75 28.7005 128.401 29.1321 127.025 29.1321C125.65 29.1321 124.274 28.7275 123.141 27.9452C121.981 27.19 121.091 26.0841 120.552 24.8163C120.012 23.5486 119.877 22.1459 120.147 20.7703C120.417 19.4216 121.091 18.1808 122.062 17.1828C123.384 15.8611 125.164 15.1328 126.998 15.1328C128.913 15.1328 130.694 15.8881 131.988 17.1828Z" fill="#0057B8"/>
<path fill-rule="evenodd" clip-rule="evenodd" d="M71.7835 90.6044C71.1091 87.8531 69.3828 84.9399 66.5506 81.838C66.4966 81.757 66.4157 81.7031 66.3348 81.6222C63.9881 78.9788 62.7203 75.5531 62.8282 72.0196C62.9361 68.486 64.3657 65.1143 66.8743 62.6328L63.3407 59.0723C60.994 61.419 59.2947 64.3321 58.4315 67.542C57.5684 70.7518 57.5684 74.1235 58.4585 77.3334C55.2487 76.4702 51.8769 76.4702 48.6671 77.3064C45.4572 78.1695 42.5171 79.8419 40.1704 82.1886L43.7039 85.7221C44.9987 84.4004 46.5092 83.3755 48.2085 82.6472C49.9079 81.9459 51.7151 81.5682 53.5493 81.5412C55.3835 81.5412 57.1907 81.8919 58.8901 82.5932C60.5894 83.2945 62.1269 84.3195 63.4217 85.6143C64.7164 86.909 65.7414 88.4465 66.4427 90.1458C67.144 91.8452 67.4947 93.6524 67.4947 95.4866C67.4947 97.3208 67.117 99.128 66.3887 100.8C65.6874 102.473 64.6355 104.01 63.3138 105.305L66.8743 108.865C69.221 106.519 70.9203 103.606 71.7835 100.396C72.6736 97.1859 72.6736 93.8142 71.7835 90.6044Z" fill="#FFD700"/>
<path fill-rule="evenodd" clip-rule="evenodd" d="M48.9098 100.18C47.9388 99.2087 47.2645 97.9679 46.9947 96.5923C46.725 95.2436 46.8599 93.841 47.3993 92.5462C47.9388 91.2785 48.8289 90.1726 49.9888 89.4173C51.1487 88.6621 52.4973 88.2305 53.873 88.2305C55.2486 88.2305 56.6243 88.6351 57.7572 89.4173C58.9171 90.1726 59.8072 91.2785 60.3466 92.5462C60.8861 93.814 61.021 95.2166 60.7512 96.5923C60.4815 97.941 59.8072 99.1818 58.8361 100.18C57.5144 101.501 55.7342 102.23 53.9 102.23C51.9848 102.23 50.2046 101.501 48.9098 100.18Z" fill="#FFD700"/>
<path fill-rule="evenodd" clip-rule="evenodd" d="M126.243 49.2802C124.759 51.7079 123.923 54.9986 123.734 59.1526C123.734 59.2604 123.734 59.3414 123.734 59.4493C123.546 62.9828 121.981 66.3006 119.419 68.7282C116.856 71.1558 113.431 72.5045 109.897 72.5045V77.5216C113.215 77.5216 116.479 76.6584 119.365 74.986C122.251 73.3137 124.625 70.94 126.27 68.0538C127.915 70.94 130.316 73.3137 133.175 74.986C136.061 76.6584 139.298 77.5216 142.643 77.5216V72.5045C139.001 72.4505 135.549 70.967 132.986 68.3775C130.424 65.7881 128.994 62.3085 128.994 58.667C128.994 55.0256 130.424 51.546 132.986 48.9565C135.549 46.3671 139.001 44.8835 142.643 44.8296V39.8125C139.325 39.8125 136.061 40.6757 133.175 42.348C130.289 44.0204 127.888 46.3941 126.243 49.2802Z" fill="#0057B8"/>
<path fill-rule="evenodd" clip-rule="evenodd" d="M149.198 58.6948C149.198 60.0704 148.793 61.4191 148.011 62.579C147.228 63.7388 146.15 64.629 144.882 65.1414C143.614 65.6809 142.184 65.8158 140.836 65.5461C139.487 65.2763 138.219 64.602 137.248 63.6309C136.277 62.6599 135.603 61.4191 135.333 60.0434C135.063 58.6948 135.198 57.2921 135.738 55.9974C136.277 54.7297 137.167 53.6237 138.327 52.8685C139.487 52.1132 140.836 51.6816 142.211 51.6816C143.128 51.6816 144.046 51.8705 144.882 52.2211C145.718 52.5718 146.5 53.0843 147.148 53.7316C147.795 54.379 148.307 55.1612 148.658 55.9974C149.036 56.8606 149.198 57.7777 149.198 58.6948Z" fill="#0057B8"/>
<path fill-rule="evenodd" clip-rule="evenodd" d="M54.6552 68.0812C56.1388 65.6535 56.9749 62.3628 57.1637 58.2088C57.1637 58.1009 57.1637 58.02 57.1637 57.9121C57.3525 54.3786 58.917 51.0608 61.4795 48.6332C64.042 46.2056 67.4676 44.8569 71.0012 44.8569V39.8398C67.6834 39.8398 64.4196 40.703 61.5335 42.3753C58.6473 44.0477 56.2736 46.4214 54.6282 49.3076C52.9828 46.4214 50.5822 44.0477 47.723 42.3753C44.8638 40.703 41.6 39.8398 38.2822 39.8398V44.8569C41.9237 44.9109 45.3763 46.3944 47.9388 48.9839C50.5013 51.5733 51.9308 55.0529 51.9308 58.6944C51.9308 62.3358 50.5013 65.8154 47.9388 68.4048C45.3763 70.9943 41.9237 72.4779 38.2822 72.5318V77.5489C41.6 77.5489 44.8638 76.6857 47.723 75.0134C50.6091 73.341 53.0098 70.9673 54.6552 68.0812Z" fill="#FFD700"/>
<path fill-rule="evenodd" clip-rule="evenodd" d="M31.7007 58.6948C31.7007 57.3191 32.1053 55.9704 32.8875 54.8106C33.6698 53.6507 34.7487 52.7606 36.0165 52.2211C37.2842 51.6816 38.7138 51.5468 40.0625 51.8165C41.4112 52.0862 42.6789 52.7606 43.65 53.7316C44.621 54.7027 45.2954 55.9435 45.5651 57.3191C45.8348 58.6678 45.7 60.0704 45.1605 61.3652C44.621 62.6329 43.7309 63.7388 42.571 64.4941C41.4112 65.2493 40.0625 65.6809 38.6868 65.6809C36.8257 65.6809 35.0454 64.9526 33.7507 63.6309C32.429 62.3092 31.7007 60.529 31.7007 58.6948Z" fill="#FFD700"/>
<path fill-rule="evenodd" clip-rule="evenodd" d="M122.413 77.3066C119.661 77.9809 116.721 79.7073 113.646 82.5125C113.565 82.5665 113.511 82.6474 113.43 82.7283C110.787 85.075 107.334 86.3428 103.801 86.2349C100.267 86.127 96.8957 84.6974 94.3872 82.1888L90.8267 85.7224C93.1734 88.0691 96.1135 89.7684 99.3233 90.6046C102.533 91.4678 105.905 91.4677 109.115 90.5776C108.252 93.7875 108.252 97.1592 109.088 100.369C109.951 103.579 111.623 106.492 113.97 108.839L117.531 105.278C114.941 102.689 113.457 99.1552 113.457 95.4868C113.457 91.8184 114.914 88.2849 117.531 85.6954C120.12 83.1059 123.653 81.6494 127.322 81.6494C130.99 81.6494 134.524 83.1059 137.113 85.6954L140.674 82.1619C138.327 79.8152 135.387 78.1158 132.177 77.2527C128.994 76.4435 125.623 76.4435 122.413 77.3066Z" fill="#FFD700"/>
<path fill-rule="evenodd" clip-rule="evenodd" d="M131.988 100.18C131.017 101.151 129.75 101.826 128.401 102.095C127.052 102.365 125.623 102.23 124.355 101.691C123.087 101.151 121.981 100.261 121.226 99.1282C120.444 97.9683 120.039 96.6196 120.039 95.244C120.039 93.8683 120.444 92.5196 121.226 91.3598C122.008 90.1999 123.087 89.3098 124.355 88.7973C125.623 88.2578 127.052 88.1229 128.401 88.3927C129.75 88.6624 131.017 89.3367 131.988 90.3078C133.31 91.6295 134.038 93.4098 134.038 95.244C134.038 97.1051 133.31 98.8854 131.988 100.18Z" fill="#FFD700"/>
<path fill-rule="evenodd" clip-rule="evenodd" d="M58.4857 40.0555C61.237 39.3812 64.1771 37.6549 67.2521 34.8496L67.4679 34.6339C70.1113 32.2872 73.5639 31.0194 77.0975 31.1273C80.631 31.2352 84.0027 32.6648 86.5112 35.1733L90.0717 31.6398C87.725 29.2931 84.7849 27.5937 81.5751 26.7576C78.3652 25.8944 74.9935 25.8944 71.7837 26.7845C72.6468 23.5747 72.6468 20.203 71.8106 16.9931C70.9475 13.7833 69.2751 10.8701 66.9014 8.52344L63.3409 12.057C65.9304 14.6464 67.4139 18.18 67.4139 21.8484C67.4139 25.5168 65.9574 29.0503 63.3409 31.6398C60.7515 34.2292 57.2179 35.6858 53.5495 35.6858C49.8811 35.6858 46.3476 34.2292 43.7581 31.6398L40.2246 35.1733C42.5713 37.52 45.5114 39.2193 48.7213 40.0825C51.9042 40.9187 55.2758 40.9187 58.4857 40.0555Z" fill="#0057B8"/>
<path fill-rule="evenodd" clip-rule="evenodd" d="M48.9098 17.1828C49.8809 16.2118 51.1217 15.5374 52.4973 15.2677C53.846 14.9979 55.2487 15.1328 56.5434 15.6723C57.8111 16.2118 58.9171 17.1019 59.6723 18.2348C60.4276 19.3946 60.8592 20.7433 60.8592 22.119C60.8592 23.4946 60.4545 24.8433 59.6723 26.0032C58.8901 27.163 57.8111 28.0532 56.5434 28.5657C55.2756 29.1051 53.846 29.24 52.4973 28.9703C51.1487 28.7005 49.8809 28.0262 48.9098 27.0551C47.5881 25.7334 46.8599 23.9801 46.8599 22.119C46.8599 20.2848 47.5881 18.5045 48.9098 17.1828Z" fill="#0057B8"/>
</svg>
