<svg width="90" height="90" viewBox="0 0 90 90" fill="none" xmlns="http://www.w3.org/2000/svg">
<path d="M86.3996 46.8C86.3996 44.8904 85.6411 43.0591 84.2908 41.7088C82.9405 40.3586 81.1092 39.6 79.1996 39.6H56.8796C56.7266 39.6014 56.576 39.5621 56.4432 39.4862C56.3104 39.4103 56.2001 39.3005 56.1236 39.168C56.0409 39.0325 55.9972 38.8768 55.9972 38.718C55.9972 38.5592 56.0409 38.4035 56.1236 38.268C58.8897 32.2645 60.8971 25.9398 62.0996 19.44L62.6036 17.316C62.9604 15.8134 62.9907 14.2518 62.6926 12.7365C62.3945 11.2212 61.7749 9.78748 60.8756 8.532C59.9908 7.3025 58.8573 6.27288 57.5486 5.51002C56.24 4.74715 54.7855 4.26811 53.2796 4.104L48.3788 3.72283C47.5272 3.65659 46.7996 4.32979 46.7996 5.184C45.8216 13.124 43.0117 20.728 38.5916 27.396C34.5146 32.033 30.0329 36.2978 25.1996 40.14C25.1172 39.0069 24.6059 37.9478 23.7697 37.1786C22.9336 36.4093 21.8357 35.9878 20.6996 36H8.09961C6.90614 36 5.76154 36.4741 4.91763 37.318C4.07372 38.1619 3.59961 39.3065 3.59961 40.5V81.9C3.59961 82.491 3.71601 83.0761 3.94215 83.6221C4.1683 84.168 4.49977 84.6641 4.91763 85.082C5.33549 85.4999 5.83157 85.8313 6.37753 86.0575C6.9235 86.2836 7.50866 86.4 8.09961 86.4H20.6996C21.2906 86.4 21.8757 86.2836 22.4217 86.0575C22.9677 85.8313 23.4637 85.4999 23.8816 85.082C24.2995 84.6641 24.6309 84.168 24.8571 83.6221C25.0832 83.0761 25.1996 82.491 25.1996 81.9V81.216C30.3716 84.6769 36.4731 86.4848 42.6956 86.4H68.3996C69.7019 86.3976 70.9792 86.042 72.0954 85.3712C73.2115 84.7003 74.1249 83.7393 74.7381 82.5904C75.3513 81.4415 75.6415 80.1478 75.5777 78.8471C75.5138 77.5464 75.0984 76.2873 74.3756 75.204C75.4126 74.8403 76.3525 74.2442 77.1234 73.4611C77.8944 72.6781 78.4758 71.729 78.8233 70.6866C79.1708 69.6441 79.2751 68.536 79.1281 67.447C78.9812 66.358 78.587 65.3171 77.9756 64.404C79.0126 64.0403 79.9525 63.4442 80.7234 62.6611C81.4944 61.8781 82.0758 60.929 82.4233 59.8866C82.7708 58.8441 82.8751 57.7359 82.7281 56.647C82.5812 55.558 82.187 54.5171 81.5756 53.604C82.9864 53.1108 84.2088 52.1908 85.0732 50.9717C85.9376 49.7525 86.4011 48.2945 86.3996 46.8ZM21.5996 81.9C21.5996 82.1387 21.5048 82.3676 21.336 82.5364C21.1672 82.7052 20.9383 82.8 20.6996 82.8H8.09961C7.86092 82.8 7.632 82.7052 7.46321 82.5364C7.29443 82.3676 7.19961 82.1387 7.19961 81.9V40.5C7.19961 40.2613 7.29443 40.0324 7.46321 39.8636C7.632 39.6948 7.86092 39.6 8.09961 39.6H20.6996C20.9383 39.6 21.1672 39.6948 21.336 39.8636C21.5048 40.0324 21.5996 40.2613 21.5996 40.5V81.9ZM79.1996 50.4H73.7996V54H75.5996C76.5544 54 77.4701 54.3793 78.1452 55.0544C78.8203 55.7296 79.1996 56.6452 79.1996 57.6C79.1996 58.5548 78.8203 59.4705 78.1452 60.1456C77.4701 60.8207 76.5544 61.2 75.5996 61.2H70.1996V64.8H71.9996C72.9544 64.8 73.8701 65.1793 74.5452 65.8544C75.2203 66.5296 75.5996 67.4452 75.5996 68.4C75.5996 69.3548 75.2203 70.2705 74.5452 70.9456C73.8701 71.6207 72.9544 72 71.9996 72H66.5996V75.6H68.3996C69.3544 75.6 70.2701 75.9793 70.9452 76.6544C71.6203 77.3296 71.9996 78.2452 71.9996 79.2C71.9996 80.1548 71.6203 81.0705 70.9452 81.7456C70.2701 82.4207 69.3544 82.8 68.3996 82.8H42.6956C36.3098 82.9393 30.0913 80.7513 25.1996 76.644V44.748C31.016 40.2122 36.4027 35.1509 41.2916 29.628C45.7206 23.1965 48.6479 15.8566 49.8627 8.15092C49.9463 7.62055 50.4259 7.24171 50.9602 7.29448L52.9196 7.488C53.9193 7.60064 54.8843 7.92152 55.7524 8.42997C56.6205 8.93842 57.3724 9.62315 57.9596 10.44C58.5609 11.2785 58.9749 12.2363 59.1736 13.2487C59.3724 14.2612 59.3512 15.3045 59.1116 16.308L58.6076 18.468C57.4668 24.6766 55.5686 30.7217 52.9556 36.468C52.5638 37.1466 52.3576 37.9164 52.3576 38.7C52.3576 39.4836 52.5638 40.2534 52.9556 40.932C53.3532 41.5919 53.92 42.1335 54.5973 42.5006C55.2746 42.8677 56.0377 43.047 56.8076 43.02H79.1996C80.1544 43.02 81.0701 43.3993 81.7452 44.0744C82.4203 44.7495 82.7996 45.6652 82.7996 46.62C82.7996 47.5748 82.4203 48.4905 81.7452 49.1656C81.0701 49.8407 80.1544 50.4 79.1996 50.4Z" fill="#4A93C8"/>
</svg>
