<svg width="149" height="150" viewBox="0 0 149 150" fill="none" xmlns="http://www.w3.org/2000/svg">
<path d="M139.076 132.635C138.349 132.754 137.631 132.925 136.928 133.148L137.41 136.288C138.004 136.086 138.615 135.936 139.236 135.84C140.047 135.706 140.869 135.641 141.691 135.646C142.252 135.631 142.81 135.717 143.34 135.901C143.735 136.046 144.089 136.285 144.371 136.598C144.653 136.911 144.854 137.288 144.957 137.697C145.066 138.116 145.119 138.547 145.117 138.98V139.621C144.621 139.499 144.119 139.407 143.613 139.345C143.165 139.294 142.715 139.269 142.265 139.268C141.377 139.265 140.491 139.355 139.623 139.538C138.833 139.7 138.079 140.003 137.397 140.434C136.761 140.841 136.234 141.397 135.863 142.055C135.468 142.803 135.274 143.641 135.301 144.486C135.273 145.357 135.443 146.223 135.798 147.018C136.11 147.681 136.584 148.254 137.176 148.685C137.818 149.131 138.542 149.444 139.306 149.606C140.213 149.805 141.14 149.902 142.069 149.894C143.434 149.904 144.799 149.813 146.151 149.621C147.357 149.44 148.263 149.286 148.861 149.157V139.01C148.869 138.097 148.756 137.187 148.524 136.303C148.322 135.524 147.937 134.804 147.4 134.204C146.821 133.591 146.102 133.13 145.304 132.859C144.261 132.514 143.167 132.352 142.069 132.381C141.066 132.376 140.064 132.461 139.076 132.635V132.635ZM140.071 146.3C139.494 145.946 139.205 145.311 139.205 144.394C139.187 143.981 139.294 143.572 139.512 143.221C139.727 142.911 140.021 142.664 140.362 142.503C140.737 142.325 141.136 142.206 141.547 142.15C141.977 142.087 142.411 142.055 142.845 142.055C143.296 142.052 143.747 142.083 144.193 142.15C144.503 142.196 144.811 142.26 145.114 142.34V146.638C144.214 146.788 143.303 146.853 142.391 146.831C141.584 146.866 140.782 146.682 140.071 146.3V146.3ZM131.784 133.354C131.224 131.989 130.345 130.778 129.221 129.824C128.064 128.864 126.715 128.164 125.264 127.77C123.604 127.317 121.89 127.096 120.169 127.114C119.273 127.114 118.25 127.146 117.1 127.212C116 127.273 114.908 127.428 113.834 127.675V149.237C114.899 149.476 115.98 149.631 117.069 149.701C118.202 149.774 119.218 149.811 120.114 149.811C121.852 149.831 123.584 149.6 125.255 149.124C126.713 148.713 128.066 147.992 129.221 147.012C130.335 146.042 131.207 144.825 131.768 143.458C132.398 141.862 132.703 140.157 132.664 138.442C132.71 136.704 132.407 134.974 131.774 133.354H131.784ZM117.864 130.714C118.716 130.635 119.572 130.604 120.427 130.619C123.159 130.619 125.176 131.291 126.48 132.635C127.783 133.98 128.435 135.912 128.435 138.433C128.435 140.909 127.768 142.837 126.434 144.216C125.1 145.595 123.076 146.285 120.363 146.285C119.7 146.285 119.178 146.285 118.791 146.266C118.404 146.248 118.097 146.239 117.87 146.217L117.864 130.714ZM104.473 149.55H108.509V127.347H104.479L104.473 149.55ZM92.444 135.738C93.0825 137.375 93.7444 139.148 94.4299 141.058H87.1249C87.8063 139.159 88.4631 137.397 89.0954 135.772C89.7277 134.147 90.2883 132.769 90.7774 131.638C91.2521 132.73 91.8097 134.098 92.4502 135.741L92.444 135.738ZM101.686 149.55C100.855 147.181 100.06 144.991 99.3009 142.982C98.5418 140.973 97.8041 139.073 97.0879 137.282C96.3717 135.486 95.6617 133.777 94.9578 132.156C94.2519 130.53 93.5275 128.931 92.7786 127.347H88.9327C88.1838 128.931 87.4595 130.53 86.7566 132.156C86.0537 133.783 85.3416 135.487 84.6265 137.282C83.9113 139.078 83.1808 140.965 82.435 142.982C81.6891 144.999 80.9003 147.181 80.0655 149.55H84.2612C84.5682 148.694 84.8751 147.838 85.182 146.972C85.489 146.107 85.7959 145.226 86.1028 144.329H95.4581C95.7589 145.226 96.0658 146.101 96.3789 146.957C96.692 147.812 96.9989 148.677 97.2997 149.55H101.686ZM64.2032 149.55H68.0797V140.293C68.0814 139.65 68.0486 139.008 67.9815 138.369C67.9231 137.793 67.8059 137.224 67.6316 136.671C68.0221 136.423 68.4417 136.224 68.8808 136.079C69.4454 135.874 70.0419 135.77 70.6426 135.772C71.8581 135.772 72.6766 136.162 73.0981 136.942C73.5196 137.721 73.7334 138.987 73.7396 140.738V149.547H77.6161V140.131C77.625 139.083 77.5356 138.037 77.3491 137.006C77.1988 136.132 76.8605 135.302 76.3577 134.572C75.8501 133.879 75.1637 133.337 74.3719 133.004C73.3489 132.596 72.2526 132.405 71.1521 132.442C70.6363 132.441 70.1218 132.496 69.6175 132.605C69.1336 132.706 68.6568 132.84 68.1902 133.004C67.7684 133.149 67.3581 133.325 66.9625 133.532C66.6509 133.692 66.3514 133.874 66.0663 134.078C65.5373 133.564 64.9113 133.16 64.2247 132.89C63.3172 132.563 62.3559 132.411 61.3917 132.442C60.1093 132.438 58.8285 132.534 57.5612 132.73C56.5734 132.88 55.5948 133.085 54.63 133.344V149.556H58.5065V136.051C58.7644 136.008 59.148 135.956 59.6606 135.892C60.1278 135.831 60.5983 135.799 61.0694 135.797C62.2665 135.797 63.0849 136.187 63.5249 136.966C63.9648 137.746 64.1838 139.011 64.1817 140.763L64.2032 149.55ZM45.6123 145.17C45.2591 145.629 44.8053 146 44.2859 146.256C43.7666 146.511 43.1955 146.644 42.6167 146.644C42.0378 146.644 41.4667 146.511 40.9474 146.256C40.428 146 39.9742 145.629 39.621 145.17C38.9048 144.188 38.5467 142.858 38.5467 141.18C38.5467 139.502 38.9048 138.183 39.621 137.221C39.9771 136.767 40.4318 136.399 40.9508 136.146C41.4698 135.894 42.0394 135.763 42.6167 135.763C43.1939 135.763 43.7635 135.894 44.2825 136.146C44.8015 136.399 45.2563 136.767 45.6123 137.221C46.3264 138.193 46.6835 139.513 46.6835 141.18C46.6835 142.848 46.3264 144.178 45.6123 145.17ZM50.0659 137.562C49.7017 136.541 49.1406 135.603 48.4146 134.799C47.7057 134.028 46.836 133.421 45.8671 133.022C44.8353 132.603 43.7302 132.394 42.6167 132.408C41.508 132.393 40.4075 132.601 39.3816 133.022C38.4152 133.426 37.5465 134.032 36.8341 134.799C36.1 135.6 35.5334 136.539 35.1674 137.562C34.7588 138.719 34.5582 139.94 34.575 141.168C34.5593 142.4 34.7598 143.624 35.1674 144.787C35.5332 145.814 36.0997 146.758 36.8341 147.564C37.5404 148.335 38.4025 148.946 39.3632 149.357C40.3963 149.796 41.5096 150.014 42.632 149.998C43.7592 150.013 44.8773 149.795 45.9162 149.357C46.8827 148.948 47.7503 148.337 48.4606 147.564C49.1899 146.756 49.7466 145.808 50.0966 144.778C50.4836 143.611 50.6694 142.387 50.646 141.159C50.6652 139.932 50.4689 138.711 50.0659 137.552V137.562ZM32.8102 133.028C32.6199 132.964 32.3621 132.896 32.0428 132.823C31.7236 132.749 31.3891 132.681 31.0484 132.629C30.7077 132.577 30.367 132.531 30.0232 132.5C29.6795 132.47 29.3817 132.451 29.127 132.451C27.8731 132.439 26.6216 132.564 25.3947 132.823C24.444 133.02 23.5077 133.281 22.5924 133.605V149.566H26.4689V136.125C26.7999 136.031 27.1361 135.956 27.4757 135.901C27.9256 135.821 28.3815 135.778 28.8385 135.775C29.4995 135.767 30.1597 135.826 30.809 135.95C31.2577 136.039 31.7014 136.151 32.138 136.288L32.8102 133.028ZM14.2776 130.8C15.1127 131.021 15.9154 131.35 16.6655 131.779L17.8933 128.479C17.7429 128.393 17.4789 128.255 17.1075 128.065C16.6494 127.84 16.1717 127.657 15.6803 127.519C15.0014 127.324 14.3117 127.169 13.6146 127.055C12.7097 126.907 11.7937 126.837 10.8768 126.847C9.43151 126.837 7.99715 127.097 6.64728 127.614C5.34582 128.111 4.16618 128.881 3.18815 129.873C2.17147 130.913 1.37773 132.15 0.855469 133.507C0.263392 135.081 -0.0261154 136.752 0.00218817 138.433C-0.0268746 140.109 0.233758 141.778 0.772591 143.366C1.22903 144.709 1.9608 145.943 2.92112 146.987C3.8638 147.979 5.01777 148.746 6.29737 149.231C7.70005 149.757 9.18849 150.018 10.6865 149.998C12.2217 150.016 13.7551 149.888 15.2659 149.615C16.223 149.453 17.1661 149.217 18.0866 148.909V138.24H14.072V146.22C13.6698 146.326 13.2589 146.396 12.8442 146.429C12.2322 146.487 11.6175 146.515 11.0026 146.512C9.98347 146.535 8.97187 146.331 8.04074 145.916C7.2155 145.54 6.49087 144.974 5.92598 144.265C5.33245 143.511 4.89619 142.646 4.643 141.72C4.34413 140.652 4.19843 139.546 4.21024 138.436C4.21024 135.919 4.81386 133.949 6.02112 132.525C7.22839 131.101 8.97381 130.391 11.2574 130.395C12.2775 130.388 13.2938 130.521 14.2776 130.791V130.8Z" fill="white"/>
<path fill-rule="evenodd" clip-rule="evenodd" d="M65.5645 23.0264C67.9939 24.5088 71.2968 25.3489 75.4732 25.5466H75.7745C79.3201 25.74 82.6564 27.2861 85.096 29.8663C87.5356 32.4464 88.8926 35.864 88.8873 39.4149H93.9229C93.9204 36.09 93.0416 32.8244 91.375 29.9472C89.7085 27.0701 87.3132 24.6829 84.4303 23.0264C87.3157 21.3678 89.7126 18.9775 91.3792 16.0968C93.0458 13.2161 93.9233 9.94676 93.9229 6.61865H88.8825C88.8825 10.3025 87.4191 13.8354 84.8142 16.4403C82.2094 19.0451 78.6764 20.5085 74.9926 20.5085C71.3088 20.5085 67.7759 19.0451 65.171 16.4403C62.5661 13.8354 61.1027 10.3025 61.1027 6.61865H56.0767C56.0754 9.94639 56.9519 13.2156 58.6177 16.0964C60.2835 18.9771 62.6797 21.3675 65.5645 23.0264V23.0264Z" fill="#0057B8"/>
<path fill-rule="evenodd" clip-rule="evenodd" d="M75.0145 0C76.402 0 77.7584 0.411448 78.9121 1.18232C80.0658 1.95319 80.965 3.04886 81.496 4.33077C82.027 5.61268 82.1659 7.02325 81.8952 8.38412C81.6245 9.74499 80.9563 10.995 79.9752 11.9762C78.9941 12.9573 77.744 13.6255 76.3832 13.8961C75.0223 14.1668 73.6117 14.0279 72.3298 13.4969C71.0479 12.9659 69.9522 12.0668 69.1813 10.9131C68.4105 9.75938 67.999 8.40301 67.999 7.01548C67.999 5.15486 68.7382 3.37044 70.0538 2.05478C71.3695 0.739126 73.1539 0 75.0145 0V0Z" fill="#0057B8"/>
<path fill-rule="evenodd" clip-rule="evenodd" d="M84.4303 94.7592C82.0009 93.2767 78.6996 92.4366 74.5264 92.239H74.2251C70.6807 92.041 67.3465 90.4937 64.9071 87.9146C62.4677 85.3356 61.1081 81.9206 61.1075 78.3706H56.0767C56.0778 81.6953 56.9554 84.9609 58.6212 87.8382C60.2869 90.7155 62.6819 93.1027 65.5645 94.7592C62.6797 96.418 60.2835 98.8084 58.6177 101.689C56.9519 104.57 56.0754 107.839 56.0767 111.167H61.1075C61.1075 107.483 62.5709 103.95 65.1758 101.345C67.7806 98.7404 71.3136 97.277 74.9974 97.277C78.6812 97.277 82.2142 98.7404 84.819 101.345C87.4239 103.95 88.8873 107.483 88.8873 111.167H93.9229C93.9233 107.839 93.0458 104.569 91.3792 101.689C89.7126 98.808 87.3157 96.4178 84.4303 94.7592V94.7592Z" fill="#FFD700"/>
<path fill-rule="evenodd" clip-rule="evenodd" d="M75.0144 117.785C73.6267 117.786 72.2698 117.376 71.1155 116.605C69.9612 115.835 69.0613 114.74 68.5295 113.458C67.9978 112.176 67.8582 110.765 68.1284 109.404C68.3985 108.043 69.0663 106.792 70.0473 105.811C71.0282 104.829 72.2782 104.161 73.6392 103.89C75.0002 103.618 76.411 103.757 77.6932 104.288C78.9754 104.819 80.0714 105.718 80.8424 106.872C81.6135 108.026 82.0251 109.382 82.0251 110.77C82.0251 112.63 81.2866 114.413 79.972 115.729C78.6574 117.044 76.8742 117.784 75.0144 117.785Z" fill="#FFD700"/>
<path fill-rule="evenodd" clip-rule="evenodd" d="M93.6932 26.8521C94.3627 29.6226 96.1034 32.5525 98.9153 35.6418L99.121 35.8666C101.486 38.5134 102.749 41.9652 102.649 45.5136C102.55 49.0619 101.096 52.4376 98.5854 54.9475L102.143 58.5055C104.5 56.1552 106.196 53.2246 107.058 50.0095C107.92 46.7945 107.919 43.4089 107.055 40.1944C110.268 41.063 113.653 41.0685 116.869 40.2103C120.085 39.3522 123.017 37.6609 125.37 35.307L121.812 31.7491C120.523 33.039 118.991 34.0622 117.306 34.7603C115.62 35.4584 113.814 35.8178 111.99 35.8178C110.166 35.8178 108.359 35.4584 106.674 34.7603C104.989 34.0622 103.457 33.039 102.167 31.7491C100.877 30.4592 99.8541 28.9278 99.156 27.2424C98.4579 25.5571 98.0986 23.7507 98.0986 21.9265C98.0986 20.1022 98.4579 18.2959 99.156 16.6105C99.8541 14.9251 100.877 13.3938 102.167 12.1039L98.6093 8.5459C96.2525 10.8955 94.557 13.8251 93.6939 17.0391C92.8308 20.2531 92.8305 23.638 93.6932 26.8521V26.8521Z" fill="#0057B8"/>
<path fill-rule="evenodd" clip-rule="evenodd" d="M116.62 17.2495C117.601 18.2305 118.27 19.4805 118.541 20.8415C118.812 22.2025 118.673 23.6133 118.142 24.8955C117.612 26.1776 116.712 27.2735 115.559 28.0446C114.405 28.8157 113.048 29.2272 111.66 29.2272C110.273 29.2272 108.916 28.8157 107.762 28.0446C106.609 27.2735 105.709 26.1776 105.179 24.8955C104.648 23.6133 104.509 22.2025 104.78 20.8415C105.051 19.4805 105.72 18.2305 106.701 17.2495C108.017 15.9348 109.801 15.1963 111.66 15.1963C113.52 15.1963 115.304 15.9348 116.62 17.2495V17.2495Z" fill="#0057B8"/>
<path fill-rule="evenodd" clip-rule="evenodd" d="M56.3026 90.9332C55.633 88.1643 53.9115 85.2424 51.0804 82.1435L50.8796 81.9236C48.5121 79.2771 47.2479 75.8245 47.3467 72.2751C47.4454 68.7256 48.8995 65.3486 51.4104 62.8378L47.8524 59.2847C45.5011 61.6374 43.8119 64.5687 42.9555 67.7828C42.0991 70.997 42.1057 74.3801 42.9746 77.5909C39.762 76.7219 36.3768 76.7166 33.1615 77.5757C29.9462 78.4347 27.0147 80.1276 24.6636 82.4831L28.2167 86.0362C30.8219 83.4311 34.3552 81.9676 38.0394 81.9676C41.7236 81.9676 45.2569 83.4311 47.862 86.0362C50.4671 88.6414 51.9306 92.1747 51.9306 95.8589C51.9306 99.5431 50.4671 103.076 47.862 105.681L51.4199 109.239C53.7709 106.886 55.4601 103.955 56.3173 100.741C57.1745 97.5275 57.1694 94.1445 56.3026 90.9332V90.9332Z" fill="#FFD700"/>
<path fill-rule="evenodd" clip-rule="evenodd" d="M33.3566 100.536C32.3751 99.5554 31.7065 98.3053 31.4354 96.9443C31.1644 95.5834 31.303 94.1725 31.8339 92.8904C32.3648 91.6082 33.2639 90.5123 34.4177 89.7412C35.5715 88.9702 36.9281 88.5586 38.3158 88.5586C39.7035 88.5586 41.06 88.9702 42.2138 89.7412C43.3676 90.5123 44.2668 91.6082 44.7976 92.8904C45.3285 94.1725 45.4672 95.5834 45.1961 96.9443C44.9251 98.3053 44.2565 99.5554 43.2749 100.536C41.9594 101.851 40.1756 102.59 38.3158 102.59C36.4559 102.59 34.6722 101.851 33.3566 100.536V100.536Z" fill="#FFD700"/>
<path fill-rule="evenodd" clip-rule="evenodd" d="M110.882 49.4624C109.399 51.8917 108.557 55.193 108.357 59.3663C108.357 59.4651 108.357 59.5656 108.357 59.6676C108.164 63.214 106.619 66.5515 104.039 68.9921C101.458 71.4327 98.0399 72.7903 94.4883 72.7851V77.816C97.8141 77.8143 101.081 76.9359 103.959 75.2693C106.837 73.6027 109.225 71.2069 110.882 68.3233C112.54 71.209 114.93 73.6062 117.811 75.2729C120.692 76.9396 123.961 77.8168 127.289 77.816V72.7851C123.605 72.7851 120.071 71.3215 117.466 68.7162C114.861 66.1109 113.397 62.5773 113.397 58.8929C113.397 55.2084 114.861 51.6749 117.466 49.0696C120.071 46.4642 123.605 45.0006 127.289 45.0006V39.9697C123.961 39.9689 120.692 40.8461 117.811 42.5128C114.93 44.1795 112.54 46.5767 110.882 49.4624V49.4624Z" fill="#0057B8"/>
<path fill-rule="evenodd" clip-rule="evenodd" d="M133.888 58.8927C133.888 60.2804 133.476 61.637 132.705 62.7908C131.934 63.9446 130.838 64.8437 129.556 65.3746C128.274 65.9054 126.863 66.0441 125.502 65.773C124.141 65.5019 122.891 64.8333 121.91 63.8517C120.929 62.8701 120.261 61.6196 119.991 60.2584C119.721 58.8972 119.861 57.4865 120.392 56.2047C120.924 54.9228 121.824 53.8275 122.978 53.0572C124.133 52.2869 125.489 51.8763 126.877 51.8772C128.737 51.8785 130.52 52.6182 131.835 53.9337C133.149 55.2492 133.888 57.0329 133.888 58.8927Z" fill="#0057B8"/>
<path fill-rule="evenodd" clip-rule="evenodd" d="M39.1484 68.3233C40.6309 65.894 41.4726 62.5927 41.6734 58.4194V58.1181C41.8714 54.5737 43.4187 51.2396 45.9978 48.8001C48.5768 46.3607 51.9918 45.0012 55.5418 45.0006V39.9697C52.2161 39.9719 48.9497 40.8505 46.0718 42.5171C43.1938 44.1836 40.8058 46.5791 39.1484 49.4624C37.4902 46.5767 35.1001 44.1795 32.2193 42.5128C29.3384 40.8461 26.0689 39.9689 22.7407 39.9697V45.0245C26.4252 45.0245 29.9587 46.4882 32.564 49.0935C35.1693 51.6988 36.633 55.2323 36.633 58.9168C36.633 62.6012 35.1693 66.1348 32.564 68.7401C29.9587 71.3454 26.4252 72.809 22.7407 72.809V77.8399C26.0713 77.8383 29.3424 76.9575 32.2234 75.2865C35.1044 73.6155 37.4933 71.2135 39.1484 68.3233V68.3233Z" fill="#FFD700"/>
<path fill-rule="evenodd" clip-rule="evenodd" d="M16.1074 58.8927C16.1074 57.5049 16.519 56.1484 17.2901 54.9946C18.0612 53.8408 19.1571 52.9416 20.4393 52.4108C21.7215 51.8799 23.1323 51.7413 24.4933 52.0123C25.8543 52.2834 27.1043 52.9521 28.0853 53.9337C29.0662 54.9153 29.734 56.1658 30.0041 57.527C30.2743 58.8881 30.1347 60.2989 29.603 61.5807C29.0713 62.8625 28.1713 63.9579 27.017 64.7282C25.8627 65.4984 24.5058 65.9091 23.1181 65.9082C21.2583 65.9069 19.4751 65.1672 18.1605 63.8517C16.8459 62.5362 16.1074 60.7525 16.1074 58.8927Z" fill="#FFD700"/>
<path fill-rule="evenodd" clip-rule="evenodd" d="M107.055 77.5909C104.291 78.2604 101.363 79.9995 98.2704 82.8082L98.0456 83.0139C95.3989 85.3788 91.9476 86.6414 88.3996 86.5427C84.8516 86.444 81.4758 84.9915 78.9647 82.483L75.4067 86.0362C77.7565 88.3864 80.6837 90.0763 83.8939 90.9359C87.1041 91.7956 90.4841 91.7946 93.6938 90.9332C92.8273 94.146 92.8233 97.5305 93.6822 100.745C94.5411 103.96 96.2326 106.892 98.586 109.244L102.144 105.686C100.854 104.396 99.8308 102.865 99.1327 101.18C98.4346 99.4942 98.0753 97.6879 98.0753 95.8636C98.0753 94.0394 98.4346 92.233 99.1327 90.5477C99.8308 88.8623 100.854 87.3309 102.144 86.041C103.434 84.7511 104.965 83.7279 106.651 83.0298C108.336 82.3317 110.142 81.9723 111.967 81.9723C113.791 81.9723 115.597 82.3317 117.283 83.0298C118.968 83.7279 120.499 84.7511 121.789 86.041L125.347 82.4878C122.998 80.1356 120.07 78.4444 116.858 77.5846C113.647 76.7249 110.266 76.727 107.055 77.5909V77.5909Z" fill="#FFD700"/>
<path fill-rule="evenodd" clip-rule="evenodd" d="M116.62 100.536C115.639 101.517 114.389 102.185 113.028 102.455C111.667 102.726 110.257 102.587 108.975 102.056C107.693 101.525 106.598 100.626 105.827 99.4719C105.056 98.3183 104.645 96.962 104.645 95.5746C104.645 94.1871 105.056 92.8309 105.827 91.6772C106.598 90.5236 107.693 89.6244 108.975 89.0933C110.257 88.5623 111.667 88.4232 113.028 88.6937C114.389 88.9642 115.639 89.6321 116.62 90.613C117.935 91.9294 118.674 93.7139 118.674 95.5746C118.674 97.4352 117.935 99.2197 116.62 100.536V100.536Z" fill="#FFD700"/>
<path fill-rule="evenodd" clip-rule="evenodd" d="M42.9734 40.1943C45.7375 39.5248 48.6658 37.7857 51.7583 34.977L51.9831 34.7713C54.6299 32.4059 58.0817 31.1435 61.6301 31.2431C65.1784 31.3427 68.554 32.7968 71.064 35.3069L74.6219 31.749C72.269 29.3931 69.3361 27.6997 66.1194 26.8399C62.9026 25.9801 59.516 25.9843 56.3014 26.852C57.1679 23.6392 57.1719 20.2547 56.313 17.0399C55.4541 13.825 53.7626 10.8935 51.4092 8.54102L47.8512 12.099C50.4564 14.7041 51.9199 18.2374 51.9199 21.9216C51.9199 25.6058 50.4564 29.1391 47.8512 31.7442C45.2461 34.3493 41.7128 35.8129 38.0286 35.8129C34.3444 35.8129 30.8111 34.3493 28.206 31.7442L24.6528 35.3022C27.0054 37.6585 29.9385 39.3518 33.1555 40.2108C36.3725 41.0698 39.7593 41.0642 42.9734 40.1943V40.1943Z" fill="#0057B8"/>
<path fill-rule="evenodd" clip-rule="evenodd" d="M33.3569 17.2493C34.3381 16.2684 35.5881 15.6004 36.9489 15.3299C38.3097 15.0594 39.7202 15.1985 41.002 15.7296C42.2837 16.2606 43.3793 17.1598 44.15 18.3134C44.9208 19.4671 45.3322 20.8234 45.3322 22.2108C45.3322 23.5982 44.9208 24.9545 44.15 26.1081C43.3793 27.2618 42.2837 28.161 41.002 28.692C39.7202 29.2231 38.3097 29.3621 36.9489 29.0916C35.5881 28.8211 34.3381 28.1532 33.3569 27.1723C32.0419 25.856 31.3032 24.0714 31.3032 22.2108C31.3032 20.3502 32.0419 18.5656 33.3569 17.2493V17.2493Z" fill="#0057B8"/>
</svg>
