<svg width="52" height="52" viewBox="0 0 52 52" fill="none" xmlns="http://www.w3.org/2000/svg">
<path fill-rule="evenodd" clip-rule="evenodd" d="M26 0C11.6406 0 0 11.6406 0 26C0 40.3594 11.6406 52 26 52C40.3594 52 52 40.3594 52 26C52 11.6406 40.3594 0 26 0ZM20.2836 12.2171C21.7627 12.1498 22.2353 12.1333 26.0013 12.1333H25.997C29.7642 12.1333 30.235 12.1498 31.7141 12.2171C33.1904 12.2847 34.1986 12.5185 35.0827 12.8613C35.9955 13.2153 36.7668 13.689 37.5382 14.4603C38.3096 15.2311 38.7833 16.0047 39.1387 16.9168C39.4796 17.7985 39.7136 18.8061 39.7829 20.2824C39.8493 21.7616 39.8667 22.2341 39.8667 26.0001C39.8667 29.7661 39.8493 30.2376 39.7829 31.7168C39.7136 33.1924 39.4796 34.2003 39.1387 35.0823C38.7833 35.9941 38.3096 36.7677 37.5382 37.5385C36.7677 38.3098 35.9953 38.7847 35.0835 39.139C34.2012 39.4819 33.1924 39.7155 31.7162 39.7831C30.237 39.8505 29.7659 39.867 25.9996 39.867C22.2339 39.867 21.7616 39.8505 20.2824 39.7831C18.8065 39.7155 17.7985 39.4819 16.9163 39.139C16.0047 38.7847 15.2311 38.3098 14.4607 37.5385C13.6895 36.7677 13.2158 35.9941 12.8613 35.082C12.5187 34.2003 12.285 33.1927 12.2171 31.7164C12.1501 30.2374 12.1333 29.7661 12.1333 26.0001C12.1333 22.2341 12.1507 21.7612 12.2169 20.2821C12.2833 18.8065 12.5173 17.7985 12.861 16.9165C13.2163 16.0047 13.6902 15.2311 14.4615 14.4603C15.2323 13.6893 16.0059 13.2155 16.918 12.8613C17.7997 12.5185 18.8073 12.2847 20.2836 12.2171Z" fill="#393B3E"/>
<path fill-rule="evenodd" clip-rule="evenodd" d="M24.7575 14.6324C24.999 14.632 25.2589 14.6322 25.5392 14.6323L26.0015 14.6324C29.7039 14.6324 30.1428 14.6457 31.6048 14.7121C32.9568 14.774 33.6906 14.9998 34.1794 15.1896C34.8266 15.441 35.2878 15.7415 35.7729 16.2268C36.2583 16.7122 36.5587 17.1744 36.8107 17.8215C37.0005 18.3097 37.2267 19.0435 37.2882 20.3955C37.3546 21.8573 37.369 22.2964 37.369 25.9971C37.369 29.6979 37.3546 30.1369 37.2882 31.5988C37.2263 32.9508 37.0005 33.6845 36.8107 34.1728C36.5593 34.8199 36.2583 35.2807 35.7729 35.7657C35.2876 36.251 34.8268 36.5516 34.1794 36.8029C33.6912 36.9936 32.9568 37.2189 31.6048 37.2806C30.143 37.3472 29.7039 37.3616 26.0015 37.3616C22.2988 37.3616 21.8599 37.3472 20.3981 37.2806C19.0461 37.2182 18.3123 36.9924 17.8232 36.8026C17.1761 36.5512 16.7139 36.2507 16.2285 35.7654C15.7432 35.2801 15.4428 34.819 15.1908 34.1716C15.001 33.6834 14.7748 32.9496 14.7133 31.5976C14.6469 30.1358 14.6335 29.6967 14.6335 25.9936C14.6335 22.2907 14.6469 21.8539 14.7133 20.392C14.7751 19.04 15.001 18.3063 15.1908 17.8175C15.4421 17.1703 15.7432 16.7081 16.2285 16.2228C16.7139 15.7375 17.1761 15.437 17.8232 15.1851C18.312 14.9944 19.0461 14.7691 20.3981 14.7069C21.6773 14.6492 22.1731 14.6318 24.7575 14.6289V14.6324ZM33.4035 16.9349C32.4848 16.9349 31.7394 17.6794 31.7394 18.5983C31.7394 19.517 32.4848 20.2623 33.4035 20.2623C34.3222 20.2623 35.0675 19.517 35.0675 18.5983C35.0675 17.6797 34.3222 16.9349 33.4035 16.9349ZM18.8803 26.0003C18.8803 22.0677 22.0686 18.8793 26.0012 18.8791C29.9339 18.8791 33.1215 22.0676 33.1215 26.0003C33.1215 29.933 29.9341 33.1201 26.0015 33.1201C22.0688 33.1201 18.8803 29.933 18.8803 26.0003Z" fill="#393B3E"/>
<path d="M26.0014 21.3779C28.5541 21.3779 30.6237 23.4473 30.6237 26.0002C30.6237 28.5528 28.5541 30.6224 26.0014 30.6224C23.4485 30.6224 21.3792 28.5528 21.3792 26.0002C21.3792 23.4473 23.4485 21.3779 26.0014 21.3779Z" fill="#393B3E"/>
</svg>
