<svg width="69" height="53" viewBox="0 0 69 53" fill="none" xmlns="http://www.w3.org/2000/svg">
<g clip-path="url(#clip0_151_5)">
<path d="M12.7231 52.3417V48.8999C12.7231 47.5806 11.9093 46.7201 10.5143 46.7201C9.81672 46.7201 9.06107 46.9496 8.53792 47.6953C8.13103 47.0643 7.54975 46.7201 6.67784 46.7201C6.09656 46.7201 5.51529 46.8922 5.05027 47.5232V46.8348H3.82959V52.3417H5.05027V49.3014C5.05027 48.3263 5.57342 47.8674 6.3872 47.8674C7.20099 47.8674 7.60788 48.3836 7.60788 49.3014V52.3417H8.82856V49.3014C8.82856 48.3263 9.40983 47.8674 10.1655 47.8674C10.9793 47.8674 11.3862 48.3836 11.3862 49.3014V52.3417H12.7231ZM30.8008 46.8348H28.8244V45.1713H27.6037V46.8348H26.4993V47.9247H27.6037V50.4487C27.6037 51.7107 28.1269 52.4564 29.5219 52.4564C30.0451 52.4564 30.6264 52.2843 31.0333 52.0549L30.6845 51.0223C30.3357 51.2518 29.9288 51.3092 29.6382 51.3092C29.0569 51.3092 28.8244 50.965 28.8244 50.3914V47.9247H30.8008V46.8348ZM41.1474 46.7201C40.4499 46.7201 39.9849 47.0643 39.6943 47.5232V46.8348H38.4736V52.3417H39.6943V49.2441C39.6943 48.3263 40.1012 47.81 40.8568 47.81C41.0893 47.81 41.38 47.8674 41.6125 47.9247L41.9612 46.7775C41.7287 46.7201 41.38 46.7201 41.1474 46.7201ZM25.5111 47.2937C24.9299 46.8922 24.1161 46.7201 23.2442 46.7201C21.8491 46.7201 20.9191 47.4085 20.9191 48.4984C20.9191 49.4162 21.6166 49.9324 22.8373 50.1045L23.4186 50.1619C24.058 50.2766 24.4067 50.4487 24.4067 50.7355C24.4067 51.1371 23.9417 51.4239 23.1279 51.4239C22.3141 51.4239 21.6747 51.1371 21.2678 50.8503L20.6866 51.7681C21.326 52.227 22.1979 52.4564 23.0698 52.4564C24.6974 52.4564 25.6274 51.7107 25.6274 50.6782C25.6274 49.703 24.8717 49.1867 23.7092 49.0146L23.1279 48.9573C22.6048 48.8999 22.1979 48.7852 22.1979 48.441C22.1979 48.0395 22.6048 47.81 23.2442 47.81C23.9417 47.81 24.6392 48.0968 24.988 48.2689L25.5111 47.2937ZM57.9463 46.7201C57.2488 46.7201 56.7838 47.0643 56.4931 47.5232V46.8348H55.2724V52.3417H56.4931V49.2441C56.4931 48.3263 56.9 47.81 57.6557 47.81C57.8882 47.81 58.1788 47.8674 58.4113 47.9247L58.7601 46.7775C58.5276 46.7201 58.1788 46.7201 57.9463 46.7201ZM42.3681 49.5883C42.3681 51.2518 43.5307 52.4564 45.3326 52.4564C46.1464 52.4564 46.7277 52.2843 47.309 51.8254L46.7277 50.8503C46.2627 51.1944 45.7976 51.3665 45.2745 51.3665C44.2863 51.3665 43.5888 50.6782 43.5888 49.5883C43.5888 48.5557 44.2863 47.8674 45.2745 47.81C45.7976 47.81 46.2627 47.9821 46.7277 48.3263L47.309 47.3511C46.7277 46.8922 46.1464 46.7201 45.3326 46.7201C43.5307 46.7201 42.3681 47.9247 42.3681 49.5883ZM53.6449 49.5883V46.8348H52.4242V47.5232C52.0173 47.0069 51.436 46.7201 50.6804 46.7201C49.1109 46.7201 47.8902 47.9247 47.8902 49.5883C47.8902 51.2518 49.1109 52.4564 50.6804 52.4564C51.4941 52.4564 52.0754 52.1696 52.4242 51.6533V52.3417H53.6449V49.5883ZM49.169 49.5883C49.169 48.6131 49.8084 47.81 50.8547 47.81C51.8429 47.81 52.5404 48.5557 52.5404 49.5883C52.5404 50.5634 51.8429 51.3665 50.8547 51.3665C49.8084 51.3092 49.169 50.5634 49.169 49.5883ZM34.579 46.7201C32.9515 46.7201 31.7889 47.8674 31.7889 49.5883C31.7889 51.3092 32.9515 52.4564 34.6372 52.4564C35.451 52.4564 36.2647 52.227 36.9041 51.7107L36.3229 50.8503C35.8578 51.1944 35.2766 51.4239 34.6953 51.4239C33.9396 51.4239 33.184 51.0797 33.0096 50.1045H37.1367V49.6456C37.1948 47.8674 36.1485 46.7201 34.579 46.7201ZM34.579 47.7526C35.3347 47.7526 35.8578 48.2115 35.9741 49.072H33.0677C33.184 48.3263 33.7071 47.7526 34.579 47.7526ZM64.8635 49.5883V44.655H63.6428V47.5232C63.2359 47.0069 62.6546 46.7201 61.899 46.7201C60.3295 46.7201 59.1088 47.9247 59.1088 49.5883C59.1088 51.2518 60.3295 52.4564 61.899 52.4564C62.7128 52.4564 63.294 52.1696 63.6428 51.6533V52.3417H64.8635V49.5883ZM60.3877 49.5883C60.3877 48.6131 61.0271 47.81 62.0734 47.81C63.0615 47.81 63.759 48.5557 63.759 49.5883C63.759 50.5634 63.0615 51.3665 62.0734 51.3665C61.0271 51.3092 60.3877 50.5634 60.3877 49.5883ZM19.5821 49.5883V46.8348H18.3615V47.5232C17.9546 47.0069 17.3733 46.7201 16.6176 46.7201C15.0482 46.7201 13.8275 47.9247 13.8275 49.5883C13.8275 51.2518 15.0482 52.4564 16.6176 52.4564C17.4314 52.4564 18.0127 52.1696 18.3615 51.6533V52.3417H19.5821V49.5883ZM15.0482 49.5883C15.0482 48.6131 15.6876 47.81 16.7339 47.81C17.7221 47.81 18.4196 48.5557 18.4196 49.5883C18.4196 50.5634 17.7221 51.3665 16.7339 51.3665C15.6876 51.3092 15.0482 50.5634 15.0482 49.5883Z" fill="white"/>
<path d="M43.4147 5.01704H25.1045V37.4846H43.4147V5.01704Z" fill="#FF5F00"/>
<path d="M26.2666 21.2508C26.2666 14.654 29.4055 8.80297 34.2301 5.01699C30.6843 2.26356 26.2085 0.600021 21.3258 0.600021C9.75843 0.600021 0.399902 9.83551 0.399902 21.2508C0.399902 32.6661 9.75843 41.9016 21.3258 41.9016C26.2085 41.9016 30.6843 40.238 34.2301 37.4846C29.4055 33.756 26.2666 27.8476 26.2666 21.2508Z" fill="#EB001B"/>
<path d="M68.1183 21.2508C68.1183 32.6661 58.7598 41.9016 47.1924 41.9016C42.3097 41.9016 37.8339 40.2381 34.2881 37.4846C39.1708 33.6986 42.2516 27.8476 42.2516 21.2508C42.2516 14.654 39.1127 8.80299 34.2881 5.01701C37.8339 2.26358 42.3097 0.600044 47.1924 0.600044C58.7598 0.600044 68.1183 9.89289 68.1183 21.2508Z" fill="#F79E1B"/>
</g>
<defs>
<clipPath id="clip0_151_5">
<rect width="67.7857" height="52" fill="white" transform="translate(0.399902 0.599998)"/>
</clipPath>
</defs>
</svg>
