<svg width="200" height="200" viewBox="0 0 200 200" fill="none" xmlns="http://www.w3.org/2000/svg">
<path d="M160 173.334H40.0002C25.3335 173.334 13.3335 161.334 13.3335 146.667V53.3337C13.3335 38.667 25.3335 26.667 40.0002 26.667H160C174.667 26.667 186.667 38.667 186.667 53.3337V146.667C186.667 161.334 174.667 173.334 160 173.334Z" fill="#A576FF" stroke="#A576FF" stroke-width="2" stroke-miterlimit="10" stroke-linecap="round" stroke-linejoin="round"/>
<path d="M160 173.334H40.0002C25.3335 173.334 13.3335 161.334 13.3335 146.667V53.3337C13.3335 38.667 25.3335 26.667 40.0002 26.667H160C174.667 26.667 186.667 38.667 186.667 53.3337V146.667C186.667 161.334 174.667 173.334 160 173.334Z" fill="#494C4E" stroke="#494C4E" stroke-width="2" stroke-miterlimit="10" stroke-linecap="round" stroke-linejoin="round"/>
<path d="M40.0002 173.333H160C174.667 173.333 186.667 161.333 186.667 146.666V99.9997L160 73.333L90.6668 137.333L60.0002 106.666L13.3335 149.333C15.3335 162.666 26.0002 173.333 40.0002 173.333Z" fill="#35393C" stroke="#35393C" stroke-width="2" stroke-miterlimit="10" stroke-linecap="round" stroke-linejoin="round"/>
<path d="M46.6668 79.9997C54.0306 79.9997 60.0002 74.0301 60.0002 66.6663C60.0002 59.3025 54.0306 53.333 46.6668 53.333C39.303 53.333 33.3335 59.3025 33.3335 66.6663C33.3335 74.0301 39.303 79.9997 46.6668 79.9997Z" fill="#70767A" stroke="#70767A" stroke-width="2" stroke-miterlimit="10" stroke-linecap="round" stroke-linejoin="round"/>
</svg>
