<svg width="24" height="24" viewBox="0 0 24 24" fill="none" xmlns="http://www.w3.org/2000/svg">
<path d="M18.1952 8.65435H17.8043V5.80396C17.8044 2.60366 15.2005 0 11.9999 0C8.79935 0 6.19546 2.60366 6.19546 5.80396V8.65435H5.80432C4.66409 8.65435 3.73633 9.58211 3.73633 10.7223V21.9319C3.73633 23.0721 4.66409 23.9999 5.80432 23.9999H18.1952C19.3355 23.9999 20.2632 23.0721 20.2632 21.9319V10.7223C20.2632 9.58211 19.3356 8.65435 18.1952 8.65435ZM7.96802 5.80396C7.96802 3.58105 9.77674 1.77256 11.9999 1.77256C14.223 1.77256 16.0318 3.58105 16.0318 5.80396V8.65435H7.96802V5.80396ZM18.4907 21.932C18.4907 22.0921 18.3554 22.2274 18.1952 22.2274H5.80432C5.64419 22.2274 5.50889 22.0921 5.50889 21.932V10.7223C5.50889 10.5622 5.64419 10.4269 5.80432 10.4269H7.08174H16.918H18.1952C18.3554 10.4269 18.4907 10.5622 18.4907 10.7223V21.932Z" fill="#252829"/>
<path d="M11.9996 13.7441C11.5101 13.7441 11.1133 14.1408 11.1133 14.6304V18.0237C11.1133 18.5133 11.5101 18.91 11.9996 18.91C12.489 18.91 12.8858 18.5133 12.8858 18.0237V14.6304C12.8858 14.1408 12.489 13.7441 11.9996 13.7441Z" fill="#252829"/>
</svg>
