<svg width="54" height="53" viewBox="0 0 54 53" fill="none" xmlns="http://www.w3.org/2000/svg">
<g clip-path="url(#clip0_151_14)">
<path d="M40.7284 10.0268C39.5658 8.93697 37.88 8.58255 36.3667 9.10981C35.9388 9.25062 35.6271 9.6159 35.5601 10.0552L35.224 12.329C34.7144 15.7633 31.73 18.3138 28.205 18.3276H23.404C22.8531 18.3278 22.3731 18.6971 22.2397 19.2234L18.639 33.4047C18.4785 34.038 18.8699 34.6793 19.5131 34.8373C19.6079 34.8606 19.7054 34.8724 19.8032 34.8724H25.8043C26.3552 34.8723 26.8352 34.5029 26.9686 33.9767L29.1411 25.4183H33.822C37.4153 25.43 40.5499 23.0185 41.4075 19.5827L42.2932 16.087C42.9168 13.9368 42.3191 11.6227 40.7284 10.0268Z" fill="#03A9F4"/>
<path d="M1.80004 49.0537C1.13717 49.0536 0.599873 48.5243 0.600098 47.8717C0.600098 47.7754 0.612138 47.6794 0.635767 47.586L1.83604 42.8826V42.833L3.03632 38.1319C3.16966 37.6056 3.64968 37.2363 4.20059 37.2362H7.254C8.91123 37.2358 10.2549 38.5582 10.2553 40.19C10.2553 40.4316 10.2253 40.6723 10.1659 40.9068L9.86575 42.0886C9.5319 43.4042 8.33129 44.3271 6.95401 44.3269H3.93886L2.96667 48.1582C2.8331 48.6851 2.35173 49.0547 1.80004 49.0537ZM4.53894 41.9631H6.95379C7.22913 41.9623 7.46858 41.7772 7.53474 41.514L7.83484 40.3322C7.91709 40.0175 7.72445 39.6966 7.40478 39.6157C7.35549 39.6032 7.30486 39.597 7.25388 39.5972H5.13903L4.53894 41.9631Z" fill="#283593"/>
<path d="M14.6356 49.0537H12.9265C11.089 49.0542 9.59908 47.5878 9.59863 45.7786C9.59852 45.5106 9.63194 45.2436 9.69788 44.9837L9.85631 44.3549C10.2115 42.9439 11.5005 41.955 12.9769 41.9606H14.686C16.5235 41.9637 18.0105 43.4329 18.0073 45.2422C18.0069 45.5088 17.9733 45.7744 17.9075 46.033L17.7491 46.6617C17.3935 48.0693 16.1086 49.0564 14.6356 49.0537ZM12.0287 45.558C11.9053 46.0471 12.208 46.5419 12.7047 46.6633C12.7773 46.681 12.8517 46.69 12.9265 46.6902H14.6356C15.0057 46.6912 15.3286 46.4435 15.4182 46.0898L15.5766 45.4611C15.6999 44.9721 15.3973 44.4773 14.9006 44.3558C14.828 44.3381 14.7536 44.3291 14.6788 44.3289H12.9697C12.5996 44.3279 12.2767 44.5756 12.1871 44.9293L12.0287 45.558Z" fill="#283593"/>
<path d="M16.2029 49.0538C15.54 49.0536 15.0028 48.5243 15.0029 47.8716C15.0029 47.7754 15.015 47.6794 15.0386 47.586L16.2389 42.8589C16.3993 42.2252 17.0511 41.8394 17.6948 41.9974C18.3384 42.1554 18.7302 42.7971 18.5698 43.4309L17.3695 48.158C17.2359 48.6852 16.7546 49.0548 16.2029 49.0538Z" fill="#283593"/>
<path d="M30.6057 49.0537C29.9428 49.0535 29.4056 48.5242 29.4058 47.8716C29.4058 47.7753 29.4178 47.6793 29.4414 47.5859L30.6417 42.8825V42.8329L31.842 38.1318C31.9753 37.6055 32.4553 37.2362 33.0063 37.2361H36.0597C37.7169 37.2357 39.0605 38.5581 39.061 40.1899C39.061 40.4315 39.0309 40.6722 38.9715 40.9067L38.6714 42.0885C38.3376 43.4041 37.1369 44.327 35.7597 44.3268H32.7446L31.7724 48.1581C31.6388 48.6851 31.1574 49.0547 30.6057 49.0537ZM33.3446 41.9631H35.7619C36.0373 41.9623 36.2767 41.7772 36.3429 41.514L36.643 40.3322C36.7251 40.0175 36.5326 39.6966 36.2129 39.6157C36.1636 39.6032 36.1129 39.597 36.062 39.5972H33.9448L33.3446 41.9631Z" fill="#03A9F4"/>
<path d="M43.4413 49.0537H41.7321C39.8947 49.0542 38.4047 47.5878 38.4043 45.7786C38.4042 45.5106 38.4376 45.2436 38.5035 44.9837L38.662 44.355C39.0172 42.9439 40.3062 41.955 41.7826 41.9606H43.4917C45.3292 41.9602 46.8191 43.4265 46.8195 45.2357C46.8196 45.5037 46.7862 45.7708 46.7203 46.0307L46.5618 46.6594C46.2066 48.0705 44.9177 49.0594 43.4413 49.0537ZM40.8343 45.558C40.711 46.0471 41.0137 46.5419 41.5104 46.6633C41.5829 46.681 41.6573 46.69 41.7321 46.6902H43.4413C43.8113 46.6912 44.1343 46.4435 44.2238 46.0898L44.3823 45.4611C44.5056 44.9721 44.2029 44.4773 43.7062 44.3558C43.6337 44.3381 43.5593 44.3291 43.4845 44.3289H41.7754C41.4053 44.3279 41.0823 44.5756 40.9928 44.9293L40.8343 45.558Z" fill="#03A9F4"/>
<path d="M45.0085 49.0537C44.3457 49.0534 43.8085 48.5242 43.8086 47.8715C43.8086 47.7752 43.8206 47.6793 43.8443 47.5859L45.0445 42.8588C45.205 42.2251 45.8567 41.8393 46.5005 41.9973C47.1441 42.1553 47.5359 42.797 47.3754 43.4308L46.1752 48.1579C46.0416 48.6851 45.5602 49.0547 45.0085 49.0537Z" fill="#03A9F4"/>
<path d="M23.4042 47.872C23.0028 47.8718 22.6281 47.674 22.4056 47.345L20.0052 43.7996C19.6372 43.2566 19.7861 42.5228 20.3377 42.1605C20.8893 41.7982 21.6345 41.9448 22.0024 42.4879L24.4029 46.0332C24.7714 46.5757 24.6235 47.3096 24.0726 47.6726C23.8748 47.8027 23.6421 47.8721 23.4042 47.872Z" fill="#283593"/>
<path d="M21.004 51.4173C20.3412 51.4171 19.804 50.8877 19.8042 50.235C19.8043 49.9588 19.9027 49.6914 20.0822 49.4791L26.0834 42.3885C26.5083 41.8873 27.2654 41.82 27.7745 42.2384C28.2835 42.6567 28.3518 43.4022 27.927 43.9034L21.9258 50.9941C21.6975 51.2627 21.3598 51.4177 21.004 51.4173Z" fill="#283593"/>
<path d="M49.8093 49.0537C49.1464 49.0535 48.6093 48.5242 48.6094 47.8716C48.6094 47.7753 48.6214 47.6793 48.645 47.5859L51.0455 38.1318C51.2059 37.4981 51.8577 37.1123 52.5014 37.2703C53.145 37.4283 53.5368 38.07 53.3764 38.7038L50.9759 48.1579C50.8425 48.6851 50.3611 49.0547 49.8093 49.0537Z" fill="#03A9F4"/>
<path d="M36.7655 3.82727C35.6122 2.52669 33.9437 1.78118 32.1902 1.78284H18.6035C18.023 1.78284 17.5257 2.19188 17.4224 2.75426L12.6214 28.7532C12.5034 29.3955 12.9366 30.0102 13.5889 30.1265C13.6593 30.139 13.7309 30.1453 13.8025 30.1453H21.0039C21.5548 30.1452 22.0348 29.7758 22.1682 29.2495L24.343 20.6911H28.2053C32.9265 20.6729 36.9233 17.2553 37.6032 12.6551L38.2033 8.61578C38.4507 6.88998 37.9262 5.14325 36.7655 3.82727Z" fill="#283593"/>
</g>
<defs>
<clipPath id="clip0_151_14">
<rect width="52.8125" height="52" fill="white" transform="translate(0.600098 0.599998)"/>
</clipPath>
</defs>
</svg>
