<svg width="40" height="40" viewBox="0 0 40 40" fill="none" xmlns="http://www.w3.org/2000/svg">
<path d="M20 40C31.0457 40 40 31.0457 40 20C40 8.9543 31.0457 0 20 0C8.9543 0 0 8.9543 0 20C0 31.0457 8.9543 40 20 40Z" fill="#26A17B"/>
<path fill-rule="evenodd" clip-rule="evenodd" d="M22.4025 21.7287V21.7262C22.265 21.7362 21.5562 21.7787 19.975 21.7787C18.7125 21.7787 17.8237 21.7412 17.5112 21.7262V21.73C12.6512 21.5162 9.02375 20.67 9.02375 19.6575C9.02375 18.6462 12.6512 17.8 17.5112 17.5825V20.8875C17.8287 20.91 18.7387 20.9637 19.9962 20.9637C21.505 20.9637 22.2613 20.9012 22.4025 20.8887V17.585C27.2525 17.8012 30.8713 18.6475 30.8713 19.6575C30.8713 20.67 27.2525 21.5137 22.4025 21.7287ZM22.4025 17.2412V14.2837H29.17V9.77374H10.7438V14.2837H17.5112V17.24C12.0112 17.4925 7.875 18.5825 7.875 19.8875C7.875 21.1925 12.0112 22.2812 17.5112 22.535V32.0125H22.4025V22.5325C27.8938 22.28 32.02 21.1912 32.02 19.8875C32.02 18.5837 27.8938 17.495 22.4025 17.2412Z" fill="white"/>
</svg>
