<svg width="24" height="24" viewBox="0 0 24 24" fill="none" xmlns="http://www.w3.org/2000/svg">
<path d="M17 6C17 8.76272 14.7627 11 12 11C9.23728 11 7 8.76272 7 6C7 3.23728 9.23728 1 12 1C14.7627 1 17 3.23728 17 6ZM1 21C1 20.3698 1.30776 19.7438 1.99002 19.1141C2.67908 18.4781 3.68134 17.9082 4.87 17.432C7.24892 16.479 10.1225 16 12 16C13.8775 16 16.7511 16.479 19.13 17.432C20.3187 17.9082 21.3209 18.4781 22.01 19.1141C22.6922 19.7438 23 20.3698 23 21V22.5C23 22.7727 22.7727 23 22.5 23H1.5C1.22728 23 1 22.7727 1 22.5V21Z" stroke="#252829" stroke-width="2"/>
</svg>
