<svg width="89" height="86" viewBox="0 0 89 86" fill="none" xmlns="http://www.w3.org/2000/svg">
<path d="M42.3545 7.93958C42.3545 7.93958 53.2522 -1.71266 65.3953 6.07145C77.5385 13.8556 73.6465 27.0885 73.6465 27.0885C73.6465 27.0885 71.4669 19.6156 62.2817 13.077C53.0965 6.53838 42.3545 7.93958 42.3545 7.93958Z" fill="#50B8E9"/>
<path d="M14.6682 32.5737C14.6682 32.5737 8.5518 19.3632 19.4951 9.96675C30.4383 0.570277 41.9963 8.09831 41.9963 8.09831C41.9963 8.09831 34.2123 8.04018 25.3115 14.9609C16.4106 21.8817 14.6682 32.5737 14.6682 32.5737Z" fill="#328FDE"/>
<path d="M28.4771 65.4071C28.4771 65.4071 13.9697 66.6165 8.9012 53.1125C3.83269 39.6085 14.8711 31.3374 14.8711 31.3374C14.8711 31.3374 12.1442 38.6283 15.5887 49.3641C19.0331 60.0999 28.4771 65.4071 28.4771 65.4071Z" fill="#1D71B8"/>
<path d="M64.8124 62.6564C64.8124 62.6564 61.4805 76.8276 47.0712 77.476C32.6618 78.1243 28.2058 65.0705 28.2058 65.0705C28.2058 65.0705 34.2976 69.9166 45.5723 69.9576C56.847 69.9986 64.8124 62.6564 64.8124 62.6564Z" fill="#ABCDEE"/>
<path d="M73.6833 27.0154C73.6833 27.0154 86.1804 34.4818 82.4354 48.411C78.6904 62.3402 64.9001 62.6346 64.9001 62.6346C64.9001 62.6346 72.5 56.5005 75 46.0005C77.5 35.5005 73.6833 27.0154 73.6833 27.0154Z" fill="#78CAF1"/>
<circle cx="18.8471" cy="47.4829" r="3.89204" fill="#1D71B8"/>
<circle cx="46.2465" cy="66.1645" r="3.89204" fill="#ABCDEE"/>
<circle cx="71.7788" cy="44.3696" r="3.89204" fill="#78CAF1"/>
<circle cx="59.3237" cy="15.4125" r="3.89204" fill="#50B8E9"/>
<circle cx="26.6313" cy="18.2153" r="3.89204" fill="#328FDE"/>
<circle cx="44.8461" cy="38.9204" r="38.7647" stroke="#4A4A4A" stroke-width="0.311363"/>
<circle cx="44.8462" cy="38.9205" r="30.9806" stroke="#4A4A4A" stroke-width="0.311363"/>
<circle cx="55.1209" cy="22.1067" r="19.1488" stroke="#4A4A4A" stroke-width="0.311363"/>
<circle cx="63.8397" cy="43.5906" r="19.1488" stroke="#4A4A4A" stroke-width="0.311363"/>
<circle cx="46.0916" cy="58.2254" r="19.1488" stroke="#4A4A4A" stroke-width="0.311363"/>
<circle cx="26.7869" cy="46.0818" r="19.1488" stroke="#4A4A4A" stroke-width="0.311363"/>
<circle cx="32.0799" cy="24.2864" r="19.1488" stroke="#4A4A4A" stroke-width="0.311363"/>
</svg>
