<svg width="54" height="37" viewBox="0 0 54 37" fill="none" xmlns="http://www.w3.org/2000/svg">
<path fill-rule="evenodd" clip-rule="evenodd" d="M50 36C46 36.0756 4 36 4 36C1.79086 36 0 34.2091 0 32V4C0 1.79086 1.79086 0 4 0H50C52.2091 0 54 1.79086 54 4V32C54 32 54 35.9244 50 36Z" fill="#F29C1F"/>
<path d="M54 6H0V14H54V6Z" fill="#464F5D"/>
<path fill-rule="evenodd" clip-rule="evenodd" d="M7 25H5C4.44772 25 4 24.5523 4 24C4 23.4477 4.44772 23 5 23H7C7.55228 23 8 23.4477 8 24C8 24.5523 7.55228 25 7 25Z" fill="#F3D55B"/>
<path fill-rule="evenodd" clip-rule="evenodd" d="M13 25H11C10.4477 25 10 24.5523 10 24C10 23.4477 10.4477 23 11 23H13C13.5523 23 14 23.4477 14 24C14 24.5523 13.5523 25 13 25Z" fill="#F3D55B"/>
<path fill-rule="evenodd" clip-rule="evenodd" d="M19 25H17C16.4477 25 16 24.5523 16 24C16 23.4477 16.4477 23 17 23H19C19.5523 23 20 23.4477 20 24C20 24.5523 19.5523 25 19 25Z" fill="#F3D55B"/>
<path fill-rule="evenodd" clip-rule="evenodd" d="M25 25H23C22.4477 25 22 24.5523 22 24C22 23.4477 22.4477 23 23 23H25C25.5523 23 26 23.4477 26 24C26 24.5523 25.5523 25 25 25Z" fill="#F3D55B"/>
</svg>
