<svg width="73" height="70" viewBox="0 0 73 70" fill="none" xmlns="http://www.w3.org/2000/svg">
<path d="M55.5567 26.5749C55.7836 29.3549 57.0879 31.9458 59.2035 33.8191C61.3191 35.6925 64.0865 36.7073 66.9419 36.6567H67.026C67.4003 36.7698 67.7304 36.9918 67.9721 37.2933C68.0247 37.3754 68.0877 37.4473 68.1298 37.5089C68.4136 53.4324 53.0547 66.3992 37.0544 66.2555C32.7075 66.3699 28.3832 65.6051 24.3534 64.0092C20.3235 62.4133 16.6752 60.0208 13.6375 56.9818C10.5998 53.943 8.23843 50.3234 6.70176 46.3506C5.16508 42.3778 4.48629 38.1375 4.70802 33.8962C4.92974 29.655 6.0472 25.5043 7.99019 21.7049C9.93316 17.9056 12.6597 14.5397 15.9985 11.8188C19.3373 9.09783 23.2161 7.08059 27.3914 5.8938C31.5668 4.707 35.9483 4.37629 40.2608 4.92245C40.6055 4.97161 40.9305 5.10985 41.2022 5.32284C41.4739 5.53583 41.6824 5.81584 41.8061 6.13391C41.9555 6.44477 42.0159 6.78937 41.9808 7.13106C41.9455 7.47275 41.8162 7.79872 41.6064 8.07431C41.5882 8.11554 41.5633 8.15367 41.5328 8.18725C35.7719 14.9735 40.9967 25.6611 50.0375 25.5482C50.9767 25.5277 51.9109 25.4071 52.8234 25.1889C53.2979 25.0157 53.8206 25.0157 54.2952 25.1889C54.5218 25.2541 54.7322 25.3643 54.9131 25.5127C55.094 25.6611 55.2415 25.8445 55.3464 26.0513C55.4358 26.1997 55.5064 26.3583 55.5567 26.5235M55.5567 26.5749C55.5567 26.5749 55.5567 26.5749 55.5567 26.5235M55.5567 26.5749V26.5235" stroke="white" stroke-width="4"/>
<ellipse cx="55.7931" cy="9.33334" rx="4.35555" ry="4.35556" fill="white"/>
<ellipse cx="62.3262" cy="26.0296" rx="2.17778" ry="2.17778" fill="white"/>
<ellipse cx="48.8448" cy="47.9111" rx="2.17778" ry="2.17778" fill="white"/>
<ellipse cx="32.2" cy="52.7333" rx="4.20001" ry="4.2" fill="white"/>
<ellipse cx="35.9339" cy="33.1334" rx="2.33334" ry="2.33333" fill="white"/>
<ellipse cx="22.4006" cy="41.0667" rx="2.8" ry="2.8" fill="white"/>
<ellipse cx="28.9335" cy="23.3334" rx="3.73334" ry="3.73333" fill="white"/>
</svg>
