<svg width="80" height="80" viewBox="0 0 80 80" fill="none" xmlns="http://www.w3.org/2000/svg">
<path d="M40 3.33325C19.7812 3.33325 3.33325 19.7812 3.33325 40C3.33325 60.2187 19.7812 76.6667 40 76.6667C60.2187 76.6667 76.6667 60.2187 76.6667 40C76.6667 19.7812 60.2187 3.33325 40 3.33325ZM40 73.3333C21.6203 73.3333 6.66669 58.3801 6.66669 40C6.66669 21.6198 21.6203 6.66669 40 6.66669C58.3797 6.66669 73.3333 21.6198 73.3333 40C73.3333 58.3801 58.3797 73.3333 40 73.3333Z" fill="#BBC0C5"/>
<path d="M40 11.6667C24.3766 11.6667 11.6667 24.3771 11.6667 40C11.6667 55.623 24.3766 68.3333 40 68.3333C55.6235 68.3333 68.3333 55.6235 68.3333 40C68.3333 24.3766 55.6235 11.6667 40 11.6667ZM40 65C26.215 65 15 53.785 15 40C15 26.215 26.215 15 40 15C53.785 15 65 26.215 65 40C65 53.785 53.785 65 40 65Z" fill="#BBC0C5"/>
<path d="M40 65C26.215 65 15 53.785 15 40C15 26.215 26.215 15 40 15C53.785 15 65 26.215 65 40C65 53.785 53.785 65 40 65Z" fill="#BBC0C5"/>
<path d="M41.7618 38.9091C41.3646 38.7577 40.9935 38.6169 40.6729 38.4753C40.3523 38.3338 39.9649 38.1856 39.5393 38.0241C37.0549 37.081 34.9999 36.1364 34.9999 34.1178C34.9999 33.0831 35.9123 31.9263 37.2689 31.2399C39.7437 29.9883 42.8865 30.4667 45.6795 32.5192C45.8557 32.6505 46.0561 32.7456 46.2693 32.7991C46.4824 32.8526 46.704 32.8635 46.9213 32.831C47.1387 32.7985 47.3474 32.7234 47.5356 32.6099C47.7238 32.4965 47.8877 32.3469 48.0178 32.1699C48.148 31.9928 48.2418 31.7918 48.294 31.5783C48.3461 31.3649 48.3556 31.1432 48.3217 30.9261C48.2879 30.709 48.2114 30.5007 48.0968 30.3132C47.9821 30.1257 47.8316 29.9628 47.6537 29.8338C45.7517 28.4353 43.697 27.5885 41.6665 27.3141V24.1667C41.6686 23.9465 41.6271 23.7281 41.5443 23.524C41.4615 23.3199 41.3391 23.1343 41.1841 22.9778C41.0291 22.8213 40.8447 22.6971 40.6414 22.6123C40.4382 22.5275 40.2201 22.4839 39.9999 22.4839C39.7796 22.4839 39.5616 22.5275 39.3583 22.6123C39.1551 22.6971 38.9706 22.8213 38.8156 22.9778C38.6607 23.1343 38.5382 23.3199 38.4554 23.524C38.3726 23.7281 38.3311 23.9465 38.3332 24.1667V27.398C37.4404 27.5652 36.5755 27.8572 35.764 28.2653C33.2363 29.5442 31.6665 31.7866 31.6665 34.1178C31.6665 38.6003 36.0179 40.2527 38.356 41.1402C38.7206 41.2785 39.0518 41.403 39.327 41.5252C39.694 41.6871 40.1181 41.8499 40.5721 42.0233C43.1649 43.0138 45.0001 43.8706 45.0001 45.8827C45.0001 46.9178 44.0878 48.0742 42.7312 48.7611C40.2556 50.0103 37.1135 49.5342 34.3206 47.481C33.9644 47.2192 33.5189 47.1096 33.0819 47.1763C32.645 47.243 32.2524 47.4805 31.9906 47.8367C31.7288 48.1928 31.6192 48.6383 31.686 49.0753C31.7527 49.5122 31.9902 49.9048 32.3463 50.1666C34.2484 51.5656 36.3029 52.4036 38.3335 52.678V56C38.3378 56.4392 38.5153 56.859 38.8274 57.1681C39.1394 57.4772 39.5609 57.6506 40.0002 57.6506C40.4394 57.6506 40.8609 57.4772 41.173 57.1681C41.4851 56.859 41.6626 56.4392 41.6668 56V52.5938C42.5592 52.4295 43.4241 52.1405 44.236 51.7353C46.7637 50.4561 48.3335 48.2141 48.3335 45.8825C48.3332 41.4202 44.2195 39.8483 41.7618 38.9091Z" fill="#292A2A"/>
</svg>
