<svg width="188" height="60" viewBox="0 0 188 60" fill="none" xmlns="http://www.w3.org/2000/svg">
<path d="M179.364 25.4105C178.787 25.5047 178.217 25.6407 177.659 25.8173L178.041 28.3094C178.513 28.1489 178.998 28.0299 179.491 27.9537C180.135 27.8475 180.787 27.7962 181.44 27.8003C181.884 27.7878 182.328 27.8563 182.748 28.0024C183.062 28.1174 183.343 28.3073 183.567 28.5557C183.79 28.8041 183.95 29.1034 184.032 29.4275C184.118 29.76 184.16 30.1023 184.158 30.4458V30.955C183.765 30.8584 183.367 30.7852 182.965 30.7357C182.61 30.6957 182.253 30.6753 181.895 30.6748C181.19 30.6721 180.487 30.7439 179.798 30.8892C179.171 31.0173 178.572 31.2584 178.032 31.6005C177.526 31.9229 177.108 32.3646 176.814 32.8867C176.5 33.4803 176.347 34.1452 176.368 34.8161C176.346 35.5072 176.481 36.1944 176.762 36.8258C177.01 37.352 177.386 37.807 177.856 38.1486C178.365 38.503 178.94 38.7515 179.547 38.8794C180.267 39.0379 181.002 39.1147 181.739 39.1084C182.823 39.1162 183.906 39.0438 184.979 38.8916C185.937 38.7479 186.655 38.6261 187.13 38.5238V30.4702C187.137 29.7452 187.047 29.0227 186.862 28.3216C186.702 27.703 186.397 27.1317 185.971 26.6553C185.511 26.1694 184.94 25.8031 184.307 25.5883C183.479 25.3144 182.611 25.1858 181.739 25.2083C180.943 25.2046 180.148 25.2723 179.364 25.4105V25.4105ZM180.153 36.2558C179.695 35.9748 179.467 35.4706 179.467 34.743C179.452 34.4153 179.537 34.0909 179.71 33.8124C179.881 33.5665 180.114 33.3698 180.385 33.2424C180.682 33.1014 180.999 33.0069 181.325 32.9623C181.666 32.912 182.011 32.8868 182.356 32.8867C182.714 32.8841 183.071 32.9093 183.425 32.9623C183.671 32.9987 183.915 33.0492 184.156 33.1133V36.5238C183.442 36.6436 182.719 36.6949 181.995 36.6772C181.354 36.705 180.718 36.5594 180.153 36.2558V36.2558ZM173.576 25.9805C173.132 24.8973 172.435 23.9365 171.542 23.1791C170.624 22.4172 169.553 21.8614 168.402 21.5493C167.085 21.1898 165.724 21.0143 164.358 21.028C163.647 21.028 162.835 21.054 161.922 21.106C161.049 21.1546 160.182 21.2777 159.33 21.4738V38.5871C160.175 38.7764 161.034 38.8994 161.898 38.955C162.797 39.0134 163.603 39.0426 164.314 39.0426C165.694 39.0586 167.068 38.8748 168.395 38.497C169.552 38.1708 170.625 37.5991 171.542 36.821C172.426 36.0507 173.119 35.0848 173.564 34C174.064 32.7339 174.306 31.3805 174.275 30.0195C174.311 28.6395 174.071 27.2663 173.569 25.9805H173.576ZM162.529 23.8855C163.205 23.8233 163.884 23.7981 164.563 23.81C166.731 23.81 168.332 24.3435 169.367 25.4105C170.401 26.4775 170.918 28.0114 170.918 30.0122C170.918 31.9773 170.389 33.5071 169.33 34.6017C168.271 35.6963 166.665 36.2436 164.512 36.2436C163.985 36.2436 163.571 36.2436 163.264 36.229C162.957 36.2144 162.714 36.2071 162.533 36.19L162.529 23.8855ZM151.9 38.8356H155.104V21.2132H151.905L151.9 38.8356ZM142.353 27.8733C142.86 29.1726 143.385 30.5798 143.929 32.095H138.132C138.672 30.5879 139.194 29.1896 139.695 27.9001C140.197 26.6107 140.642 25.5169 141.03 24.6188C141.407 25.486 141.85 26.5717 142.358 27.8758L142.353 27.8733ZM149.688 38.8356C149.029 36.9549 148.398 35.2172 147.795 33.6224C147.193 32.0276 146.607 30.5197 146.039 29.0987C145.471 27.6728 144.907 26.3167 144.348 25.0305C143.788 23.7394 143.213 22.4702 142.619 21.2132H139.566C138.972 22.4702 138.397 23.7394 137.839 25.0305C137.281 26.3216 136.716 27.6736 136.149 29.0987C135.581 30.5238 135.001 32.0219 134.409 33.6224C133.817 35.2229 133.191 36.9549 132.529 38.8356H135.859C136.102 38.1559 136.346 37.4763 136.59 36.7893C136.833 36.1023 137.077 35.4032 137.32 34.6919H144.745C144.984 35.4032 145.228 36.0983 145.476 36.7771C145.725 37.456 145.968 38.1421 146.207 38.8356H149.688ZM119.939 38.8356H123.016V31.4884C123.017 30.9783 122.991 30.4684 122.938 29.961C122.892 29.5037 122.798 29.0523 122.66 28.6139C122.97 28.4171 123.303 28.2592 123.652 28.1437C124.1 27.9806 124.573 27.8981 125.05 27.9001C126.015 27.9001 126.664 28.2095 126.999 28.8283C127.333 29.447 127.503 30.4515 127.508 31.8417V38.8331H130.585V31.3593C130.592 30.5279 130.521 29.6976 130.373 28.8794C130.253 28.1861 129.985 27.527 129.586 26.9476C129.183 26.3976 128.638 25.9673 128.01 25.7028C127.198 25.3795 126.328 25.2277 125.454 25.257C125.045 25.2566 124.637 25.2999 124.236 25.3861C123.852 25.467 123.474 25.5728 123.104 25.7028C122.769 25.8181 122.443 25.9581 122.129 26.1218C121.882 26.249 121.644 26.3939 121.418 26.5554C120.998 26.1473 120.501 25.8268 119.956 25.6127C119.236 25.3531 118.473 25.2324 117.708 25.257C116.69 25.2539 115.673 25.3305 114.667 25.486C113.883 25.6046 113.107 25.7673 112.341 25.9732V38.8405H115.418V28.1218C115.622 28.0877 115.927 28.0463 116.334 27.9951C116.705 27.9468 117.078 27.9216 117.452 27.9196C118.402 27.9196 119.052 28.229 119.401 28.8478C119.75 29.4665 119.924 30.471 119.922 31.8612L119.939 38.8356ZM105.184 35.3593C104.904 35.7233 104.543 36.018 104.131 36.2208C103.719 36.4236 103.266 36.5291 102.806 36.5291C102.347 36.5291 101.894 36.4236 101.481 36.2208C101.069 36.018 100.709 35.7233 100.429 35.3593C99.8603 34.5798 99.5761 33.5242 99.5761 32.1925C99.5761 30.8608 99.8603 29.8133 100.429 29.05C100.711 28.6894 101.072 28.3978 101.484 28.1972C101.896 27.9967 102.348 27.8925 102.806 27.8925C103.264 27.8925 103.717 27.9967 104.128 28.1972C104.54 28.3978 104.901 28.6894 105.184 29.05C105.751 29.8214 106.034 30.8689 106.034 32.1925C106.034 33.5161 105.751 34.5717 105.184 35.3593ZM108.719 29.3204C108.43 28.5108 107.984 27.7658 107.408 27.1279C106.845 26.5155 106.155 26.034 105.386 25.7174C104.567 25.3848 103.69 25.2191 102.806 25.2302C101.926 25.2179 101.053 25.3836 100.239 25.7174C99.4717 26.0377 98.7822 26.5186 98.2168 27.1279C97.6342 27.7633 97.1845 28.5087 96.894 29.3204C96.5697 30.2393 96.4105 31.2083 96.4239 32.1827C96.4114 33.1602 96.5705 34.1323 96.894 35.0548C97.1843 35.8702 97.634 36.6196 98.2168 37.2595C98.7774 37.8707 99.4617 38.3556 100.224 38.6821C101.044 39.0304 101.928 39.2038 102.819 39.1912C103.713 39.2028 104.601 39.0295 105.425 38.6821C106.192 38.3576 106.881 37.8725 107.445 37.2595C108.023 36.6182 108.465 35.8655 108.743 35.0475C109.05 34.1218 109.198 33.1506 109.179 32.1754C109.194 31.2017 109.038 30.2329 108.719 29.313V29.3204ZM95.0231 25.7223C94.8721 25.6711 94.6675 25.6176 94.4141 25.5591C94.1608 25.5006 93.8952 25.447 93.6248 25.4056C93.3544 25.3642 93.084 25.3277 92.8112 25.3033C92.5384 25.2789 92.3021 25.2643 92.0999 25.2643C91.1047 25.2548 90.1114 25.3536 89.1376 25.5591C88.3831 25.7157 87.64 25.9232 86.9135 26.1803V38.8478H89.9902V28.1803C90.2529 28.1057 90.5197 28.0463 90.7893 28.0024C91.1463 27.9386 91.5082 27.9052 91.8709 27.9026C92.3955 27.8961 92.9195 27.9426 93.4348 28.0414C93.791 28.1117 94.1431 28.2011 94.4896 28.3094L95.0231 25.7223ZM80.3142 23.9537C80.977 24.1295 81.6141 24.3907 82.2095 24.7308L83.1839 22.1121C83.0645 22.0439 82.855 21.9342 82.5603 21.7832C82.1967 21.6044 81.8175 21.4593 81.4275 21.3496C80.8887 21.1949 80.3413 21.0721 79.788 20.9817C79.0699 20.864 78.3428 20.8086 77.6151 20.8161C76.468 20.8086 75.3296 21.0152 74.2582 21.4251C73.2253 21.8193 72.289 22.4308 71.5128 23.218C70.7059 24.0435 70.0759 25.025 69.6614 26.1023C69.1915 27.3514 68.9617 28.6779 68.9842 30.0122C68.9611 31.3426 69.168 32.667 69.5956 33.9269C69.9579 34.9933 70.5387 35.9724 71.3008 36.8015C72.049 37.5887 72.9649 38.1974 73.9805 38.5822C75.0938 38.9999 76.2751 39.2064 77.4641 39.1912C78.6825 39.2053 79.8995 39.1033 81.0986 38.8867C81.8583 38.7581 82.6067 38.5708 83.3374 38.3264V29.8587H80.151V36.1925C79.8318 36.2766 79.5057 36.3321 79.1766 36.3581C78.6908 36.4047 78.203 36.4266 77.715 36.4239C76.9061 36.4421 76.1032 36.2807 75.3642 35.9513C74.7092 35.6529 74.1341 35.2038 73.6857 34.6407C73.2147 34.0424 72.8684 33.3557 72.6675 32.6212C72.4303 31.773 72.3146 30.8954 72.324 30.0146C72.324 28.0171 72.8031 26.4531 73.7613 25.3228C74.7194 24.1925 76.1047 23.6289 77.9172 23.6322C78.7268 23.6266 79.5334 23.7324 80.3142 23.9464V23.9537Z" fill="white"/>
<path fill-rule="evenodd" clip-rule="evenodd" d="M25.1935 11.7296C26.431 12.4848 28.1135 12.9127 30.241 13.0134H30.3945C32.2006 13.1119 33.9001 13.8995 35.1428 15.2139C36.3856 16.5282 37.0768 18.2691 37.0741 20.078H39.6393C39.638 18.3842 39.1903 16.7207 38.3414 15.2551C37.4925 13.7895 36.2723 12.5735 34.8037 11.7296C36.2735 10.8847 37.4945 9.66714 38.3435 8.19969C39.1925 6.73225 39.6395 5.06685 39.6393 3.37151H37.0717C37.0717 5.24805 36.3262 7.04773 34.9993 8.37465C33.6724 9.70157 31.8727 10.447 29.9962 10.447C28.1196 10.447 26.3199 9.70157 24.993 8.37465C23.6661 7.04773 22.9206 5.24805 22.9206 3.37151H20.3604C20.3597 5.06666 20.8062 6.73199 21.6548 8.19946C22.5033 9.66693 23.724 10.8846 25.1935 11.7296V11.7296Z" fill="#0057B8"/>
<path fill-rule="evenodd" clip-rule="evenodd" d="M30.0073 0C30.7141 0 31.405 0.209592 31.9927 0.602274C32.5804 0.994956 33.0385 1.55309 33.3089 2.2061C33.5794 2.8591 33.6502 3.57765 33.5123 4.27088C33.3744 4.96411 33.0341 5.60088 32.5343 6.10067C32.0345 6.60046 31.3977 6.94082 30.7045 7.07871C30.0113 7.2166 29.2927 7.14583 28.6397 6.87535C27.9867 6.60486 27.4286 6.14682 27.0359 5.55913C26.6432 4.97144 26.4336 4.2805 26.4336 3.57369C26.4336 2.62589 26.8101 1.71691 27.4803 1.04671C28.1505 0.376511 29.0595 0 30.0073 0V0Z" fill="#0057B8"/>
<path fill-rule="evenodd" clip-rule="evenodd" d="M34.8037 48.2704C33.5662 47.5152 31.8845 47.0873 29.7587 46.9866H29.6052C27.7996 46.8858 26.1012 46.0976 24.8586 44.7838C23.6159 43.47 22.9234 41.7304 22.9231 39.9221H20.3604C20.3609 41.6157 20.808 43.2792 21.6565 44.7449C22.5051 46.2106 23.7251 47.4266 25.1935 48.2704C23.724 49.1154 22.5033 50.3331 21.6548 51.8006C20.8062 53.268 20.3597 54.9334 20.3604 56.6285H22.9231C22.9231 54.752 23.6685 52.9523 24.9955 51.6254C26.3224 50.2984 28.1221 49.553 29.9986 49.553C31.8751 49.553 33.6748 50.2984 35.0017 51.6254C36.3287 52.9523 37.0741 54.752 37.0741 56.6285H39.6393C39.6395 54.9332 39.1925 53.2678 38.3435 51.8003C37.4945 50.3329 36.2735 49.1153 34.8037 48.2704V48.2704Z" fill="#FFD700"/>
<path fill-rule="evenodd" clip-rule="evenodd" d="M30.0073 60C29.3004 60.0005 28.6092 59.7913 28.0212 59.3989C27.4332 59.0065 26.9747 58.4485 26.7039 57.7956C26.433 57.1426 26.3619 56.424 26.4995 55.7306C26.6371 55.0372 26.9773 54.4002 27.477 53.9002C27.9767 53.4001 28.6135 53.0595 29.3068 52.9214C30.0001 52.7834 30.7187 52.854 31.3719 53.1244C32.025 53.3948 32.5833 53.8529 32.9761 54.4406C33.3689 55.0283 33.5785 55.7194 33.5785 56.4263C33.5785 57.3737 33.2024 58.2823 32.5327 58.9524C31.863 59.6225 30.9547 59.9993 30.0073 60Z" fill="#FFD700"/>
<path fill-rule="evenodd" clip-rule="evenodd" d="M39.5224 13.6784C39.8634 15.0897 40.7501 16.5822 42.1825 18.1559L42.2873 18.2704C43.4922 19.6187 44.1353 21.3771 44.0846 23.1846C44.0338 24.9921 43.2931 26.7117 42.0144 27.9902L43.8269 29.8027C45.0276 28.6054 45.8912 27.1126 46.3305 25.4748C46.7698 23.8371 46.7691 22.1124 46.3287 20.475C47.9654 20.9174 49.6899 20.9202 51.3281 20.4831C52.9662 20.046 54.46 19.1844 55.6588 17.9854L53.8463 16.1729C53.1893 16.83 52.4092 17.3513 51.5506 17.7069C50.6921 18.0625 49.772 18.2455 48.8427 18.2455C47.9134 18.2455 46.9933 18.0625 46.1347 17.7069C45.2762 17.3513 44.4961 16.83 43.839 16.1729C43.1819 15.5158 42.6607 14.7358 42.3051 13.8772C41.9495 13.0187 41.7665 12.0986 41.7665 11.1693C41.7665 10.24 41.9495 9.31986 42.3051 8.46133C42.6607 7.6028 43.1819 6.82272 43.839 6.16563L42.0266 4.35321C40.8261 5.5501 39.9624 7.04243 39.5227 8.67966C39.083 10.3169 39.0829 12.0411 39.5224 13.6784V13.6784Z" fill="#0057B8"/>
<path fill-rule="evenodd" clip-rule="evenodd" d="M51.201 8.78685C51.701 9.28655 52.0416 9.92332 52.1796 10.6166C52.3177 11.3099 52.2471 12.0286 51.9766 12.6817C51.7062 13.3348 51.2482 13.8931 50.6604 14.2859C50.0727 14.6787 49.3817 14.8883 48.6748 14.8883C47.9679 14.8883 47.2768 14.6787 46.6891 14.2859C46.1014 13.8931 45.6433 13.3348 45.3729 12.6817C45.1025 12.0286 45.0318 11.3099 45.1699 10.6166C45.308 9.92332 45.6486 9.28655 46.1486 8.78685C46.8187 8.11714 47.7274 7.74094 48.6748 7.74094C49.6222 7.74094 50.5308 8.11714 51.201 8.78685V8.78685Z" fill="#0057B8"/>
<path fill-rule="evenodd" clip-rule="evenodd" d="M20.4753 46.3216C20.1343 44.9111 19.2573 43.4226 17.8152 41.8441L17.7128 41.732C16.5069 40.3839 15.8629 38.6252 15.9132 36.8171C15.9635 35.009 16.7042 33.2887 17.9832 32.0097L16.1708 30.1998C14.973 31.3982 14.1126 32.8915 13.6763 34.5287C13.2401 36.166 13.2434 37.8894 13.686 39.525C12.0495 39.0823 10.3251 39.0796 8.68724 39.5172C7.04936 39.9548 5.55607 40.8172 4.3584 42.017L6.16839 43.827C7.49544 42.5 9.2953 41.7545 11.172 41.7545C13.0488 41.7545 14.8486 42.5 16.1757 43.827C17.5027 45.1541 18.2483 46.954 18.2483 48.8307C18.2483 50.7074 17.5027 52.5073 16.1757 53.8343L17.9881 55.6468C19.1857 54.4481 20.0462 52.955 20.4828 51.3178C20.9195 49.6807 20.9169 47.9574 20.4753 46.3216V46.3216Z" fill="#FFD700"/>
<path fill-rule="evenodd" clip-rule="evenodd" d="M8.78676 51.2132C8.28675 50.7135 7.94616 50.0767 7.80809 49.3834C7.67002 48.6901 7.74066 47.9714 8.01108 47.3183C8.28149 46.6652 8.73954 46.1069 9.32728 45.7141C9.91502 45.3213 10.606 45.1117 11.313 45.1117C12.0199 45.1117 12.7109 45.3213 13.2986 45.7141C13.8864 46.1069 14.3444 46.6652 14.6148 47.3183C14.8852 47.9714 14.9559 48.6901 14.8178 49.3834C14.6797 50.0767 14.3392 50.7135 13.8391 51.2132C13.169 51.8829 12.2604 52.2591 11.313 52.2591C10.3655 52.2591 9.4569 51.8829 8.78676 51.2132V51.2132Z" fill="#FFD700"/>
<path fill-rule="evenodd" clip-rule="evenodd" d="M48.278 25.1961C47.5229 26.4336 47.0941 28.1153 46.9918 30.2412C46.9918 30.2915 46.9918 30.3427 46.9918 30.3946C46.8939 32.2012 46.1065 33.9013 44.7921 35.1446C43.4777 36.3878 41.7365 37.0794 39.9272 37.0767V39.6395C41.6214 39.6386 43.2854 39.1911 44.7515 38.3422C46.2176 37.4932 47.434 36.2728 48.278 34.8039C49.1227 36.2739 50.3403 37.495 51.8078 38.344C53.2753 39.193 54.9407 39.6399 56.6361 39.6395V37.0767C54.7593 37.0767 52.9593 36.3312 51.6321 35.004C50.305 33.6769 49.5594 31.8769 49.5594 30C49.5594 28.1231 50.305 26.3231 51.6321 24.996C52.9593 23.6688 54.7593 22.9233 56.6361 22.9233V20.3605C54.9407 20.3601 53.2753 20.807 51.8078 21.656C50.3403 22.505 49.1227 23.7261 48.278 25.1961V25.1961Z" fill="#0057B8"/>
<path fill-rule="evenodd" clip-rule="evenodd" d="M59.9975 30C59.9975 30.7069 59.7878 31.3979 59.395 31.9857C59.0022 32.5734 58.444 33.0315 57.7908 33.3019C57.1377 33.5723 56.419 33.6429 55.7257 33.5048C55.0324 33.3668 54.3956 33.0261 53.8959 32.5261C53.3963 32.0261 53.0561 31.3891 52.9185 30.6957C52.7809 30.0023 52.852 29.2837 53.1228 28.6307C53.3937 27.9777 53.8521 27.4198 54.4401 27.0274C55.0281 26.635 55.7193 26.4258 56.4262 26.4263C57.3736 26.4269 58.282 26.8037 58.9516 27.4739C59.6213 28.144 59.9975 29.0526 59.9975 30Z" fill="#0057B8"/>
<path fill-rule="evenodd" clip-rule="evenodd" d="M11.737 34.8039C12.4922 33.5664 12.9209 31.8847 13.0232 29.7588V29.6054C13.1241 27.7998 13.9123 26.1014 15.2261 24.8588C16.5398 23.6161 18.2794 22.9236 20.0878 22.9233V20.3605C18.3937 20.3617 16.7298 20.8092 15.2638 21.6581C13.7977 22.5071 12.5813 23.7274 11.737 25.1961C10.8923 23.7261 9.67477 22.505 8.20728 21.656C6.73979 20.807 5.0743 20.3601 3.37891 20.3605V22.9354C5.25577 22.9354 7.05577 23.681 8.38291 25.0082C9.71006 26.3353 10.4556 28.1353 10.4556 30.0122C10.4556 31.889 9.71006 33.689 8.38291 35.0162C7.05577 36.3433 5.25577 37.0889 3.37891 37.0889V39.6516C5.07549 39.6508 6.74179 39.2021 8.20939 38.3509C9.67698 37.4997 10.8939 36.2761 11.737 34.8039V34.8039Z" fill="#FFD700"/>
<path fill-rule="evenodd" clip-rule="evenodd" d="M0 30C1.64239e-07 29.2931 0.209652 28.602 0.602441 28.0143C0.995231 27.4266 1.55351 26.9685 2.20666 26.6981C2.85981 26.4277 3.57848 26.3571 4.27178 26.4951C4.96507 26.6332 5.60184 26.9738 6.10153 27.4739C6.60122 27.9739 6.94139 28.6109 7.07901 29.3043C7.21662 29.9977 7.1455 30.7163 6.87465 31.3693C6.60379 32.0222 6.14536 32.5802 5.55735 32.9726C4.96934 33.365 4.27816 33.5742 3.57125 33.5737C2.62387 33.573 1.71552 33.1962 1.04585 32.5261C0.376176 31.856 -2.20107e-07 30.9474 0 30Z" fill="#FFD700"/>
<path fill-rule="evenodd" clip-rule="evenodd" d="M46.3288 39.525C44.9208 39.866 43.4291 40.7519 41.8538 42.1827L41.7393 42.2874C40.3911 43.4921 38.633 44.1353 36.8256 44.085C35.0183 44.0348 33.2986 43.2948 32.0195 42.017L30.207 43.827C31.404 45.0242 32.8951 45.8851 34.5304 46.323C36.1657 46.7609 37.8875 46.7604 39.5225 46.3215C39.0811 47.9582 39.079 49.6822 39.5166 51.3199C39.9541 52.9575 40.8157 54.4508 42.0146 55.6492L43.827 53.8368C43.1699 53.1797 42.6487 52.3996 42.2931 51.5411C41.9375 50.6826 41.7544 49.7624 41.7544 48.8331C41.7544 47.9039 41.9375 46.9837 42.2931 46.1252C42.6487 45.2666 43.1699 44.4866 43.827 43.8295C44.4841 43.1724 45.2642 42.6511 46.1227 42.2955C46.9812 41.9399 47.9014 41.7569 48.8307 41.7569C49.7599 41.7569 50.6801 41.9399 51.5386 42.2955C52.3971 42.6511 53.1772 43.1724 53.8343 43.8295L55.6467 42.0195C54.45 40.8213 52.9584 39.9597 51.3225 39.5218C49.6866 39.0838 47.9642 39.0849 46.3288 39.525V39.525Z" fill="#FFD700"/>
<path fill-rule="evenodd" clip-rule="evenodd" d="M51.2013 51.2132C50.7015 51.7128 50.0647 52.0531 49.3715 52.1909C48.6783 52.3287 47.9598 52.2578 47.3069 51.9873C46.654 51.7168 46.0959 51.2587 45.7033 50.6711C45.3106 50.0834 45.1011 49.3925 45.1011 48.6858C45.1011 47.979 45.3106 47.2881 45.7033 46.7005C46.0959 46.1128 46.654 45.6547 47.3069 45.3842C47.9598 45.1137 48.6783 45.0429 49.3715 45.1807C50.0647 45.3185 50.7015 45.6587 51.2013 46.1584C51.8712 46.8289 52.2474 47.738 52.2474 48.6858C52.2474 49.6336 51.8712 50.5426 51.2013 51.2132V51.2132Z" fill="#FFD700"/>
<path fill-rule="evenodd" clip-rule="evenodd" d="M13.6855 20.4751C15.0936 20.134 16.5853 19.2481 18.1606 17.8173L18.2751 17.7126C19.6234 16.5076 21.3817 15.8645 23.1893 15.9153C24.9968 15.966 26.7164 16.7067 27.9949 17.9854L29.8073 16.173C28.6088 14.9729 27.1147 14.1103 25.4761 13.6723C23.8375 13.2343 22.1123 13.2364 20.4748 13.6785C20.9162 12.0419 20.9183 10.3178 20.4808 8.68014C20.0432 7.0425 19.1816 5.54919 17.9827 4.35081L16.1703 6.16324C17.4974 7.49029 18.2429 9.29016 18.2429 11.1669C18.2429 13.0436 17.4974 14.8435 16.1703 16.1705C14.8433 17.4976 13.0434 18.2431 11.1667 18.2431C9.28993 18.2431 7.49006 17.4976 6.16301 16.1705L4.35303 17.983C5.55145 19.1833 7.04558 20.0458 8.68432 20.4834C10.3231 20.921 12.0483 20.9181 13.6855 20.4751V20.4751Z" fill="#0057B8"/>
<path fill-rule="evenodd" clip-rule="evenodd" d="M8.78685 8.78686C9.28669 8.28719 9.92346 7.94695 10.6167 7.80915C11.3098 7.67136 12.0283 7.7422 12.6813 8.01272C13.3342 8.28324 13.8923 8.74129 14.2849 9.32895C14.6775 9.91661 14.8871 10.6075 14.8871 11.3143C14.8871 12.021 14.6775 12.7119 14.2849 13.2996C13.8923 13.8872 13.3342 14.3453 12.6813 14.6158C12.0283 14.8863 11.3098 14.9572 10.6167 14.8194C9.92346 14.6816 9.28669 14.3413 8.78685 13.8417C8.11699 13.1711 7.74072 12.2621 7.74072 11.3143C7.74072 10.3665 8.11699 9.45741 8.78685 8.78686V8.78686Z" fill="#0057B8"/>
</svg>
