<svg width="52" height="52" viewBox="0 0 52 52" fill="none" xmlns="http://www.w3.org/2000/svg">
<path fill-rule="evenodd" clip-rule="evenodd" d="M26 0C11.6406 0 0 11.6406 0 26C0 40.3594 11.6406 52 26 52C40.3594 52 52 40.3594 52 26C52 11.6406 40.3594 0 26 0ZM12.4817 21.5343H18.3739V39.2379H12.4817V21.5343ZM18.762 16.0579C18.7238 14.3221 17.4825 13 15.4668 13C13.4511 13 12.1333 14.3221 12.1333 16.0579C12.1333 17.7578 13.4122 19.1179 15.3903 19.1179H15.428C17.4825 19.1179 18.762 17.7578 18.762 16.0579ZM32.8392 21.1186C36.7166 21.1186 39.6234 23.6495 39.6234 29.0872L39.6231 39.2379H33.7312V29.7664C33.7312 27.3874 32.8785 25.7641 30.7455 25.7641C29.1177 25.7641 28.1481 26.8584 27.7223 27.9156C27.5665 28.2943 27.5283 28.8221 27.5283 29.3512V39.2383H21.6354C21.6354 39.2383 21.713 23.196 21.6354 21.5348H27.5283V24.0423C28.3102 22.8369 29.7109 21.1186 32.8392 21.1186Z" fill="#393B3E"/>
</svg>
