<svg width="272" height="60" viewBox="0 0 272 60" fill="none" xmlns="http://www.w3.org/2000/svg">
<path d="M89.0873 21.8818C86.6249 21.8818 84.7419 22.635 83.4384 24.1703C82.1348 25.7057 81.4974 27.8204 81.4974 30.5145C81.4974 31.7022 81.6423 32.8899 81.961 34.0487C82.2217 35.0336 82.7141 35.9606 83.3514 36.7717C83.9598 37.5249 84.7419 38.1333 85.64 38.5388C86.6539 38.9733 87.7257 39.2051 88.8265 39.1761C89.4928 39.1761 90.1301 39.1471 90.7964 39.0892C91.2309 39.0602 91.6655 38.9733 92.1 38.8575V30.2827H96.4453V41.7543C95.4604 42.073 94.4465 42.3337 93.4036 42.5075C91.7814 42.7972 90.1301 42.9421 88.4789 42.9131C86.8567 42.9421 85.2634 42.6524 83.757 42.073C82.3665 41.5516 81.1498 40.7404 80.1359 39.6686C79.093 38.5388 78.3109 37.2352 77.8184 35.7868C77.239 34.0776 76.9493 32.2816 77.0073 30.4855C76.9783 28.6895 77.297 26.8934 77.9343 25.1842C78.4847 23.7358 79.3538 22.4032 80.4256 21.2735C81.4685 20.2016 82.7431 19.3905 84.1626 18.8401C85.611 18.2897 87.1463 18 88.7106 18C89.6956 18 90.6805 18.0579 91.6655 18.2317C92.4187 18.3476 93.1429 18.5214 93.8961 18.7242C94.4175 18.8691 94.9389 19.0718 95.4314 19.3036C95.837 19.5064 96.1266 19.6512 96.2715 19.7381L94.9679 23.2723C94.1568 22.8088 93.2877 22.4612 92.3897 22.2294C91.2599 21.9977 90.1591 21.8528 89.0873 21.8818Z" fill="white"/>
<path d="M110.061 22.1136C109.134 22.1136 108.294 22.1425 107.512 22.2294V29.9351H109.395C110.322 29.9351 111.277 29.8772 112.204 29.7613C112.9 29.6744 113.595 29.4716 114.203 29.153C114.725 28.8922 115.13 28.4577 115.42 27.9652C115.71 27.3569 115.855 26.7196 115.826 26.0533C115.855 25.416 115.71 24.7787 115.42 24.1993C115.13 23.7068 114.725 23.2723 114.232 23.0116C113.653 22.6929 113.045 22.4902 112.378 22.3743C111.625 22.1715 110.843 22.1136 110.061 22.1136ZM109.771 18.3476C113.218 18.3476 115.855 18.9849 117.68 20.2306C119.505 21.5052 120.432 23.4172 120.432 26.0243C120.432 29.2688 118.838 31.4415 115.623 32.6002C116.057 33.1217 116.55 33.759 117.1 34.5412C117.651 35.2943 118.201 36.1055 118.78 37.0035C119.36 37.8726 119.91 38.7995 120.432 39.7265C120.953 40.6535 121.446 41.5805 121.851 42.4786H117.013C116.579 41.6385 116.115 40.8274 115.594 39.9873C115.072 39.1472 114.58 38.336 114.058 37.5539C113.537 36.7717 113.016 36.0185 112.523 35.3233C112.031 34.628 111.538 33.9907 111.104 33.4403C110.785 33.4693 110.495 33.4693 110.264 33.4693H107.512V42.4786H103.166V18.956C104.267 18.7242 105.397 18.5504 106.527 18.4925C107.743 18.4056 108.815 18.3476 109.771 18.3476Z" fill="white"/>
<path d="M130.194 30.5145C130.165 31.7312 130.339 32.9189 130.686 34.0776C130.976 35.0626 131.44 35.9896 132.077 36.8007C132.685 37.5539 133.438 38.1333 134.307 38.5388C135.234 38.9734 136.248 39.1761 137.262 39.1472C138.276 39.1472 139.261 38.9444 140.188 38.5388C141.057 38.1333 141.81 37.5539 142.419 36.8007C143.056 35.9896 143.519 35.0626 143.809 34.0776C144.446 31.7601 144.446 29.2978 143.809 26.9513C143.519 25.9664 143.056 25.0394 142.419 24.2283C141.81 23.4751 141.057 22.8957 140.188 22.4901C139.261 22.0556 138.276 21.8528 137.262 21.8818C136.248 21.8528 135.234 22.0846 134.307 22.4901C133.438 22.8957 132.685 23.5041 132.077 24.2572C131.44 25.0684 130.976 25.9954 130.686 26.9803C130.339 28.1101 130.194 29.2978 130.194 30.5145ZM148.85 30.5145C148.879 32.3685 148.589 34.1935 147.923 35.9316C147.372 37.3801 146.532 38.7126 145.431 39.8424C144.389 40.8853 143.143 41.6964 141.752 42.1889C140.333 42.7393 138.798 43 137.262 43C135.727 43 134.192 42.7393 132.772 42.1889C131.382 41.6674 130.136 40.8853 129.093 39.8424C127.992 38.7126 127.152 37.409 126.602 35.9316C125.356 32.4264 125.356 28.6315 126.602 25.1263C127.152 23.6489 128.021 22.3453 129.122 21.2155C130.165 20.1727 131.439 19.3615 132.83 18.8401C135.698 17.7972 138.855 17.7972 141.723 18.8401C143.114 19.3615 144.36 20.1727 145.402 21.2155C146.503 22.3453 147.343 23.6779 147.894 25.1263C148.56 26.8355 148.879 28.6605 148.85 30.5145Z" fill="white"/>
<path d="M160.553 18.6084C161.045 19.4774 161.625 20.5493 162.233 21.8239C162.841 23.0985 163.479 24.4021 164.116 25.7926C164.753 27.1831 165.391 28.6025 166.028 30.022C166.665 31.4415 167.245 32.774 167.766 33.9907C168.287 32.774 168.867 31.4415 169.475 30.022C170.084 28.6025 170.721 27.1831 171.358 25.7926C171.995 24.4021 172.633 23.0695 173.241 21.8239C173.849 20.5782 174.429 19.5064 174.921 18.6084H178.832C179.035 20.3465 179.238 22.2005 179.44 24.1703C179.643 26.1402 179.788 28.139 179.962 30.1669C180.107 32.1947 180.252 34.2804 180.367 36.3662C180.483 38.4519 180.599 40.4508 180.686 42.4496H176.428C176.341 39.6686 176.225 36.8007 176.109 33.8748C175.993 30.949 175.79 28.0811 175.53 25.3291C175.269 25.8505 174.979 26.4878 174.632 27.212C174.284 27.9363 173.936 28.7474 173.531 29.6165C173.125 30.4855 172.72 31.3546 172.314 32.2816C171.909 33.2086 171.503 34.0776 171.155 34.9467C170.779 35.8158 170.431 36.5979 170.113 37.3511C169.794 38.0753 169.504 38.7416 169.272 39.263H166.028C165.796 38.7416 165.535 38.0753 165.217 37.3511C164.898 36.5979 164.551 35.7868 164.174 34.9177L163.015 32.2526C162.61 31.3256 162.204 30.4566 161.799 29.6165C161.393 28.7764 161.045 27.9652 160.698 27.212C160.35 26.4589 160.06 25.8505 159.8 25.3291C159.539 28.0811 159.336 30.92 159.22 33.8748C159.104 36.8007 158.989 39.6686 158.873 42.4496H154.614C154.701 40.4797 154.817 38.4229 154.933 36.3082C155.049 34.1935 155.194 32.1078 155.367 30.022C155.512 27.9363 155.686 25.9374 155.889 23.9965C156.063 22.0556 156.265 20.2596 156.497 18.5794L160.553 18.6084Z" fill="white"/>
<path d="M196.359 23.2144C195.837 24.4311 195.229 25.9085 194.534 27.6466C193.867 29.3847 193.143 31.2966 192.419 33.3245H200.298C199.574 31.2677 198.85 29.3847 198.155 27.6176C197.488 25.8505 196.88 24.3731 196.359 23.2144ZM203.398 42.4496C203.079 41.4936 202.732 40.5666 202.384 39.6396C202.036 38.7126 201.718 37.7856 201.37 36.8297H191.289C190.97 37.7856 190.623 38.7416 190.304 39.6686C189.985 40.5956 189.638 41.5226 189.319 42.4496H184.8C185.698 39.9003 186.538 37.5539 187.349 35.3812C188.16 33.2086 188.943 31.1808 189.696 29.2399C190.478 27.299 191.231 25.4739 191.984 23.7358C192.737 21.9977 193.52 20.2596 194.331 18.5794H198.473C199.284 20.2885 200.067 21.9977 200.82 23.7358C201.573 25.4739 202.355 27.3279 203.108 29.2399C203.89 31.1518 204.673 33.2086 205.484 35.3812C206.295 37.5539 207.164 39.9003 208.062 42.4496H203.398Z" fill="white"/>
<path d="M217.158 18.6084H212.812V42.4496H217.158V18.6084Z" fill="white"/>
<path d="M228.948 38.8864C229.209 38.9154 229.528 38.9154 229.933 38.9444C230.339 38.9444 230.918 38.9444 231.613 38.9444C234.539 38.9444 236.712 38.1912 238.131 36.7138C239.58 35.2364 240.275 33.1506 240.275 30.4855C240.275 27.7914 239.58 25.7057 238.16 24.2572C236.77 22.8088 234.597 22.0846 231.642 22.0846C230.715 22.0556 229.788 22.1135 228.89 22.2005V38.8864H228.948ZM244.852 30.5145C244.881 32.3685 244.562 34.1935 243.896 35.9027C243.288 37.3801 242.361 38.6837 241.144 39.7265C239.899 40.7694 238.45 41.5516 236.886 41.9861C235.09 42.5075 233.236 42.7393 231.353 42.7393C230.397 42.7393 229.296 42.7103 228.079 42.6234C226.921 42.5655 225.733 42.3916 224.603 42.1309V18.956C225.762 18.6952 226.921 18.5214 228.108 18.4635C229.354 18.4056 230.455 18.3476 231.411 18.3766C233.265 18.3476 235.119 18.5794 236.886 19.0718C238.45 19.5064 239.899 20.2306 241.144 21.2735C242.361 22.2874 243.288 23.591 243.896 25.0684C244.562 26.7775 244.91 28.6315 244.852 30.5145Z" fill="white"/>
<path d="M259.597 23.2144C259.075 24.4311 258.467 25.9085 257.801 27.6466C257.135 29.3847 256.41 31.2966 255.686 33.3245H263.537C262.812 31.2677 262.088 29.3847 261.393 27.6176C260.727 25.8505 260.118 24.3731 259.597 23.2144ZM266.636 42.4496C266.318 41.4936 265.97 40.5666 265.622 39.6396C265.275 38.7126 264.927 37.7856 264.608 36.8297H254.527C254.209 37.7856 253.861 38.7416 253.542 39.6686C253.224 40.5956 252.876 41.5226 252.557 42.4496H248.038C248.936 39.9003 249.776 37.5539 250.588 35.3812C251.399 33.2375 252.181 31.1808 252.934 29.2399C253.716 27.299 254.469 25.4739 255.223 23.7358C255.976 21.9977 256.758 20.2596 257.569 18.5504H261.712C262.523 20.2596 263.305 21.9687 264.058 23.7068C264.811 25.445 265.593 27.299 266.347 29.2109C267.129 31.1228 267.911 33.1796 268.722 35.3523C269.533 37.5249 270.402 39.8714 271.3 42.4206H266.636V42.4496Z" fill="white"/>
<path fill-rule="evenodd" clip-rule="evenodd" d="M25.2219 11.7214C26.463 12.4799 28.1453 12.9074 30.269 13.0039H30.4207C32.2272 13.1004 33.9233 13.9003 35.1782 15.2103C36.4193 16.5203 37.1226 18.2579 37.1226 20.0781H39.6875C39.6875 18.382 39.2462 16.7134 38.3912 15.2517C37.5363 13.7899 36.3228 12.5626 34.8472 11.7214C36.3228 10.8803 37.5363 9.66674 38.3912 8.19122C39.2462 6.72949 39.6875 5.0609 39.6875 3.36474H37.1226C37.095 5.22638 36.3365 6.9915 35.0127 8.28775C33.6889 9.584 31.8962 10.3149 30.0483 10.3149C28.1867 10.3149 26.4078 9.584 25.084 8.28775C23.7601 6.9915 23.0017 5.21259 22.9741 3.36474H20.4092C20.4092 5.0609 20.8505 6.72949 21.7054 8.19122C22.5328 9.66674 23.7463 10.8803 25.2219 11.7214Z" fill="#0057B8"/>
<path fill-rule="evenodd" clip-rule="evenodd" d="M30.0346 0C30.7379 0 31.4412 0.206847 32.0204 0.592965C32.6133 0.979084 33.0684 1.54447 33.3442 2.1926C33.62 2.84073 33.6889 3.5578 33.551 4.26109C33.4131 4.95059 33.0684 5.59871 32.572 6.09515C32.0755 6.59159 31.4274 6.93634 30.7379 7.07423C30.0484 7.21213 29.3175 7.14318 28.6694 6.86739C28.0213 6.59159 27.4559 6.13652 27.056 5.54356C26.6561 4.95059 26.4492 4.26109 26.4492 3.5578C26.4492 2.6063 26.8215 1.70995 27.4973 1.03425C28.173 0.386118 29.0831 0 30.0346 0Z" fill="#0057B8"/>
<path fill-rule="evenodd" clip-rule="evenodd" d="M34.8471 48.2786C33.606 47.5201 31.9237 47.0926 29.8 46.9961H29.6483C27.8418 46.8996 26.1457 46.1135 24.8908 44.7897C23.6497 43.4797 22.9464 41.7421 22.9602 39.9219H20.3953C20.3953 41.618 20.8365 43.2866 21.6915 44.7483C22.5465 46.2101 23.76 47.4374 25.2355 48.2786C23.76 49.1197 22.5465 50.347 21.6915 51.8088C20.8365 53.2705 20.3953 54.9391 20.3953 56.6353H22.9602C22.9878 54.7736 23.7462 53.0085 25.0701 51.7122C26.3939 50.416 28.1866 49.6851 30.0344 49.6851C31.8823 49.6851 33.675 50.416 34.9988 51.7122C36.3226 53.0085 37.0811 54.7874 37.1087 56.6353H39.6736C39.6736 54.9391 39.2323 53.2705 38.3773 51.795C37.5362 50.347 36.3226 49.1197 34.8471 48.2786Z" fill="#FFD700"/>
<path fill-rule="evenodd" clip-rule="evenodd" d="M30.0346 60C29.3313 60 28.628 59.7932 28.0488 59.3932C27.4559 59.0071 27.0008 58.4417 26.725 57.7936C26.4492 57.1455 26.3803 56.4284 26.5182 55.7251C26.6561 55.0356 27.0008 54.4013 27.4973 53.8911C27.9937 53.3946 28.6418 53.0499 29.3313 52.912C30.0208 52.7741 30.7517 52.843 31.3998 53.1188C32.0479 53.3946 32.6133 53.8497 32.9994 54.4289C33.3993 55.0218 33.6062 55.7113 33.6062 56.4146C33.6062 56.8835 33.5097 57.3523 33.3304 57.7798C33.1511 58.2073 32.8891 58.6072 32.5582 58.9382C32.2272 59.2691 31.8273 59.5311 31.3998 59.7104C30.9723 59.9173 30.5035 60 30.0346 60Z" fill="#FFD700"/>
<path fill-rule="evenodd" clip-rule="evenodd" d="M39.5771 13.6934C39.9219 15.1 40.8045 16.5893 42.2386 18.1751L42.3489 18.2854C43.5487 19.6369 44.1968 21.3882 44.1416 23.1947C44.0865 25.0011 43.3556 26.7249 42.0731 27.9936L43.8934 29.8C45.0931 28.6003 45.9619 27.111 46.4032 25.47C46.8444 23.829 46.8444 22.1053 46.3894 20.4643C48.0304 20.9055 49.7541 20.9055 51.3951 20.478C53.0361 20.0368 54.5392 19.1818 55.739 17.9821L53.9187 16.1756C52.581 17.4856 50.7884 18.2027 48.9267 18.1889C47.0651 18.1751 45.2724 17.4305 43.9486 16.1204C42.6247 14.7966 41.8801 13.0177 41.8801 11.1561C41.8663 9.29441 42.5971 7.50173 43.9072 6.1641L42.0869 4.35762C40.8872 5.55734 40.0184 7.04666 39.5771 8.68766C39.1221 10.3287 39.1221 12.0524 39.5771 13.6934Z" fill="#0057B8"/>
<path fill-rule="evenodd" clip-rule="evenodd" d="M51.2709 8.78419C51.7674 9.28063 52.1121 9.91496 52.25 10.6182C52.3879 11.3077 52.319 12.0248 52.0432 12.6867C51.7674 13.3349 51.3123 13.9002 50.7193 14.2864C50.1264 14.6725 49.4369 14.8931 48.7336 14.8931C48.0303 14.8931 47.327 14.6863 46.7478 14.2864C46.1549 13.9002 45.6998 13.3349 45.424 12.6867C45.1482 12.0386 45.0792 11.3215 45.2171 10.6182C45.355 9.92875 45.6998 9.29442 46.1962 8.78419C46.8719 8.10848 47.7821 7.73615 48.7198 7.73615C49.6989 7.73615 50.609 8.12227 51.2709 8.78419Z" fill="#0057B8"/>
<path fill-rule="evenodd" clip-rule="evenodd" d="M20.4919 46.3204C20.1471 44.9138 19.2646 43.4245 17.8166 41.8387C17.7891 41.7973 17.7477 41.7697 17.7063 41.7283C16.5066 40.3769 15.8585 38.6256 15.9136 36.8191C15.9688 35.0126 16.6997 33.2889 17.9821 32.0202L16.1756 30.2C14.9759 31.3997 14.1072 32.889 13.6659 34.53C13.2246 36.171 13.2246 37.8947 13.6797 39.5357C12.0387 39.0945 10.3149 39.0945 8.67391 39.5219C7.03291 39.9632 5.5298 40.8182 4.33008 42.0179L6.13656 43.8244C6.79847 43.1487 7.57072 42.6247 8.43949 42.2524C9.30825 41.8938 10.2322 41.7008 11.1699 41.687C12.1076 41.687 13.0315 41.8662 13.9003 42.2248C14.7691 42.5833 15.5551 43.1073 16.217 43.7693C16.8789 44.4312 17.4029 45.2172 17.7615 46.086C18.12 46.9547 18.2993 47.8786 18.2993 48.8164C18.2993 49.7541 18.1062 50.678 17.7339 51.533C17.3754 52.388 16.8376 53.174 16.1619 53.8359L17.9821 55.6562C19.1818 54.4564 20.0506 52.9671 20.4919 51.3261C20.947 49.6851 20.947 47.9614 20.4919 46.3204Z" fill="#FFD700"/>
<path fill-rule="evenodd" clip-rule="evenodd" d="M8.79803 51.2158C8.30159 50.7194 7.95685 50.085 7.81895 49.3817C7.68105 48.6923 7.75 47.9752 8.0258 47.3133C8.3016 46.6651 8.75666 46.0997 9.34963 45.7136C9.9426 45.3275 10.6321 45.1069 11.3354 45.1069C12.0387 45.1069 12.742 45.3137 13.3211 45.7136C13.9141 46.0997 14.3692 46.6651 14.645 47.3133C14.9208 47.9614 14.9897 48.6785 14.8518 49.3817C14.7139 50.0712 14.3692 50.7056 13.8727 51.2158C13.197 51.8915 12.2869 52.2638 11.3492 52.2638C10.3701 52.2638 9.45995 51.8915 8.79803 51.2158Z" fill="#FFD700"/>
<path fill-rule="evenodd" clip-rule="evenodd" d="M48.3337 25.1942C47.5753 26.4353 47.1478 28.1177 47.0513 30.2413C47.0513 30.2965 47.0513 30.3379 47.0513 30.393C46.9548 32.1995 46.1549 33.8957 44.8449 35.1367C43.5349 36.3778 41.7835 37.0673 39.9771 37.0673V39.6323C41.6732 39.6323 43.3418 39.191 44.8173 38.336C46.2928 37.481 47.5064 36.2675 48.3475 34.792C49.1887 36.2675 50.416 37.481 51.8778 38.336C53.3533 39.191 55.0081 39.6323 56.718 39.6323V37.0673C54.8564 37.0398 53.0913 36.2813 51.7812 34.9575C50.4712 33.6336 49.7403 31.8547 49.7403 29.9931C49.7403 28.1315 50.4712 26.3526 51.7812 25.0287C53.0913 23.7049 54.8564 22.9464 56.718 22.9189V20.3539C55.0219 20.3539 53.3533 20.7952 51.8778 21.6502C50.4022 22.5052 49.1749 23.7187 48.3337 25.1942Z" fill="#0057B8"/>
<path fill-rule="evenodd" clip-rule="evenodd" d="M60.0688 30.0069C60.0688 30.7102 59.862 31.3997 59.4621 31.9926C59.0622 32.5856 58.5106 33.0407 57.8625 33.3027C57.2143 33.5785 56.4835 33.6474 55.794 33.5095C55.1045 33.3716 54.4563 33.0269 53.9599 32.5305C53.4635 32.034 53.1187 31.3997 52.9808 30.6964C52.8429 30.0069 52.9119 29.2898 53.1877 28.6279C53.4635 27.9798 53.9185 27.4144 54.5115 27.0283C55.1045 26.6422 55.794 26.4215 56.4972 26.4215C56.9661 26.4215 57.435 26.518 57.8625 26.6973C58.2899 26.8766 58.6898 27.1386 59.0208 27.4696C59.3518 27.8005 59.6138 28.2004 59.793 28.6279C59.9861 29.0692 60.0688 29.538 60.0688 30.0069Z" fill="#0057B8"/>
<path fill-rule="evenodd" clip-rule="evenodd" d="M11.7352 34.8058C12.4937 33.5647 12.9212 31.8823 13.0177 29.7587C13.0177 29.7035 13.0177 29.6621 13.0177 29.607C13.1142 27.8005 13.914 26.1043 15.2241 24.8632C16.5341 23.6222 18.2855 22.9327 20.0919 22.9327V20.3677C18.3958 20.3677 16.7272 20.809 15.2517 21.664C13.7762 22.519 12.5626 23.7325 11.7214 25.208C10.8803 23.7325 9.65296 22.519 8.19122 21.664C6.72949 20.809 5.06091 20.3677 3.36475 20.3677V22.9327C5.22639 22.9602 6.99151 23.7187 8.30155 25.0425C9.61159 26.3663 10.3424 28.1453 10.3424 30.0069C10.3424 31.8685 9.61159 33.6474 8.30155 34.9713C6.99151 36.2951 5.22639 37.0536 3.36475 37.0811V39.6461C5.06091 39.6461 6.72949 39.2048 8.19122 38.3498C9.66675 37.4948 10.8941 36.2813 11.7352 34.8058Z" fill="#FFD700"/>
<path fill-rule="evenodd" clip-rule="evenodd" d="M0 30.0069C0 29.3036 0.206852 28.6141 0.60676 28.0211C1.00667 27.4282 1.55826 26.9731 2.20639 26.6973C2.85452 26.4215 3.58538 26.3526 4.27488 26.4905C4.96438 26.6284 5.61251 26.9731 6.10895 27.4696C6.60538 27.966 6.95013 28.6003 7.08803 29.3036C7.22593 29.9931 7.15698 30.7102 6.88118 31.3721C6.60538 32.0202 6.15032 32.5856 5.55735 32.9717C4.96438 33.3578 4.27488 33.5785 3.5716 33.5785C2.62009 33.5785 1.70997 33.2062 1.04805 32.5305C0.372342 31.8547 0 30.9446 0 30.0069Z" fill="#FFD700"/>
<path fill-rule="evenodd" clip-rule="evenodd" d="M46.3756 39.5219C44.969 39.8667 43.4659 40.7493 41.8938 42.1834C41.8525 42.211 41.8249 42.2524 41.7835 42.2937C40.4321 43.4935 38.667 44.1416 36.8605 44.0864C35.054 44.0313 33.3303 43.3004 32.0478 42.0179L30.2275 43.8244C31.4273 45.0241 32.9304 45.8929 34.5714 46.3204C36.2124 46.7617 37.9361 46.7617 39.5771 46.3066C39.1358 47.9476 39.1358 49.6713 39.5633 51.3123C40.0046 52.9533 40.8596 54.4427 42.0593 55.6424L43.8796 53.8221C42.5557 52.4983 41.7973 50.6918 41.7973 48.8164C41.7973 46.9409 42.542 45.1345 43.8796 43.8106C45.2034 42.4868 47.0099 41.7421 48.8853 41.7421C50.7608 41.7421 52.5672 42.4868 53.8911 43.8106L55.7113 42.0041C54.5116 40.8044 53.0085 39.9357 51.3675 39.4944C49.7403 39.0807 48.0166 39.0807 46.3756 39.5219Z" fill="#FFD700"/>
<path fill-rule="evenodd" clip-rule="evenodd" d="M51.2711 51.2158C50.7746 51.7123 50.1265 52.057 49.437 52.1949C48.7475 52.3328 48.0166 52.2638 47.3685 51.988C46.7204 51.7123 46.155 51.2572 45.7689 50.678C45.369 50.085 45.1621 49.3955 45.1621 48.6923C45.1621 47.989 45.369 47.2995 45.7689 46.7065C46.1688 46.1135 46.7204 45.6585 47.3685 45.3965C48.0166 45.1207 48.7475 45.0517 49.437 45.1896C50.1265 45.3275 50.7746 45.6723 51.2711 46.1687C51.9468 46.8444 52.3191 47.7545 52.3191 48.6923C52.3191 49.6438 51.9468 50.5539 51.2711 51.2158Z" fill="#FFD700"/>
<path fill-rule="evenodd" clip-rule="evenodd" d="M13.6934 20.478C15.1 20.1333 16.6031 19.2507 18.1752 17.8166L18.2855 17.7063C19.6369 16.5066 21.402 15.8584 23.2085 15.9136C25.015 15.9687 26.7387 16.6996 28.0212 17.9821L29.8415 16.1756C28.6417 14.9759 27.1386 14.1071 25.4976 13.6796C23.8566 13.2383 22.1329 13.2383 20.4919 13.6934C20.9332 12.0524 20.9332 10.3287 20.5057 8.68766C20.0644 7.04666 19.2094 5.55734 17.9959 4.35762L16.1756 6.1641C17.4995 7.48794 18.2579 9.29441 18.2579 11.1698C18.2579 13.0453 17.5133 14.8518 16.1756 16.1756C14.8518 17.4994 13.0453 18.2441 11.1699 18.2441C9.29445 18.2441 7.48798 17.4994 6.16414 16.1756L4.35767 17.9821C5.55739 19.1818 7.06049 20.0506 8.7015 20.4918C10.3287 20.9193 12.0524 20.9193 13.6934 20.478Z" fill="#0057B8"/>
<path fill-rule="evenodd" clip-rule="evenodd" d="M8.79803 8.78419C9.29447 8.28775 9.92881 7.943 10.6321 7.8051C11.3216 7.6672 12.0387 7.73615 12.7006 8.01195C13.3487 8.28775 13.9141 8.74282 14.3002 9.322C14.6863 9.91496 14.907 10.6045 14.907 11.3077C14.907 12.011 14.7001 12.7005 14.3002 13.2935C13.9003 13.8865 13.3487 14.3415 12.7006 14.6035C12.0525 14.8793 11.3216 14.9483 10.6321 14.8104C9.9426 14.6725 9.29447 14.3277 8.79803 13.8313C8.12232 13.1556 7.75 12.2593 7.75 11.3077C7.75 10.37 8.12232 9.4599 8.79803 8.78419Z" fill="#0057B8"/>
</svg>
