<svg width="40" height="40" viewBox="0 0 40 40" fill="none" xmlns="http://www.w3.org/2000/svg">
<g opacity="0.5">
<path fill-rule="evenodd" clip-rule="evenodd" d="M36.4415 8.60962C38.6851 11.8422 40 15.7675 40 20.0004C40 24.2332 38.6851 28.1589 36.4415 31.3911L31.2607 26.2105C32.2782 24.3696 32.8574 22.2524 32.8574 20.0004C32.8574 17.7484 32.2782 15.6315 31.2607 13.7906L36.4415 8.60962Z" fill="#8FC7FF"/>
<path fill-rule="evenodd" clip-rule="evenodd" d="M31.3908 3.55856L26.2098 8.73923C24.3689 7.72181 22.252 7.14271 20 7.14271C12.8993 7.14271 7.14272 12.8993 7.14272 20C7.14272 27.1007 12.8993 32.8573 20 32.8573C22.252 32.8573 24.3689 32.2783 26.2098 31.2607L31.3908 36.4415C28.1581 38.685 24.2329 40 20 40C8.9544 40 0 31.0456 0 20C0 8.95439 8.9544 0 20 0C24.2329 0 28.1581 1.31496 31.3908 3.55856Z" fill="#297EFF"/>
</g>
</svg>
