<svg width="20" height="20" viewBox="0 0 20 20" fill="none" xmlns="http://www.w3.org/2000/svg">
<path d="M19.7563 18.5781L14.7813 13.6031C16.1363 11.9459 16.8025 9.83117 16.6421 7.69649C16.4817 5.56181 15.5069 3.57045 13.9194 2.1343C12.332 0.698147 10.2532 -0.0729133 8.11319 -0.0193965C5.97316 0.0341203 3.93556 0.90812 2.42186 2.42182C0.908154 3.93553 0.0341546 5.97312 -0.0193622 8.11315C-0.0728789 10.2532 0.698182 12.3319 2.13433 13.9194C3.57048 15.5069 5.56185 16.4816 7.69653 16.642C9.83121 16.8025 11.9459 16.1363 13.6032 14.7812L18.5782 19.7562C18.7371 19.8983 18.9444 19.9741 19.1575 19.9681C19.3706 19.9621 19.5734 19.8748 19.7241 19.7241C19.8748 19.5733 19.9622 19.3706 19.9682 19.1575C19.9741 18.9444 19.8983 18.7371 19.7563 18.5781ZM8.33441 15C7.01519 15.0006 5.72542 14.6099 4.62827 13.8774C3.53113 13.1449 2.67589 12.1034 2.17076 10.8847C1.66563 9.66603 1.53331 8.32491 1.79052 7.03101C2.04774 5.73711 2.68294 4.54856 3.61577 3.61573C4.5486 2.6829 5.73714 2.0477 7.03104 1.79049C8.32494 1.53327 9.66607 1.6656 10.8847 2.17073C12.1034 2.67586 13.1449 3.53109 13.8774 4.62824C14.61 5.72539 15.0007 7.01515 15 8.33437C14.9976 10.1014 14.2945 11.7954 13.045 13.0449C11.7955 14.2945 10.1015 14.9975 8.33441 15Z" fill="#AFAFB8"/>
</svg>
