<svg width="80" height="80" viewBox="0 0 80 80" fill="none" xmlns="http://www.w3.org/2000/svg">
<path d="M77.2645 64.2575C76.1391 60.1309 74.072 57.8693 69.9497 56.5974C66.1946 55.3383 54.6096 51.2679 51.259 49.965C48.9896 54.1971 45.6602 58.3058 40.0001 62.143C34.34 58.3058 31.0106 54.1971 28.7412 49.965C25.3906 51.2679 13.8056 55.3383 10.0505 56.5974C5.92818 57.8693 3.86106 60.1309 2.73573 64.2575C1.46258 68.9261 1.23486 69.9057 1.23486 74.7215C1.23486 74.7215 24.8613 78.7215 40.0001 78.7215C55.1389 78.7215 78.7654 74.7215 78.7654 74.7215C78.7654 69.9057 78.5377 68.9261 77.2645 64.2575ZM68.7497 70.3269H58.0328C57.5591 70.3269 57.1048 70.1387 56.7698 69.8038C56.4348 69.4688 56.2466 69.0145 56.2466 68.5408C56.2466 68.067 56.4348 67.6127 56.7698 67.2778C57.1048 66.9428 57.5591 66.7546 58.0328 66.7546H68.7497C69.2234 66.7546 69.6777 66.9428 70.0127 67.2778C70.3476 67.6127 70.5358 68.067 70.5358 68.5408C70.5358 69.0145 70.3476 69.4688 70.0127 69.8038C69.6777 70.1387 69.2234 70.3269 68.7497 70.3269Z" fill="#ABABAB"/>
<path d="M29.4809 40.4188L29.4843 40.4184L29.4846 40.4188C29.9635 41.0242 30.4852 41.5944 31.0459 42.1251C31.0577 42.1386 31.0704 42.1552 31.0821 42.1686C31.0987 42.1686 31.0987 42.185 31.1152 42.185C33.549 44.3867 36.7146 45.6046 39.9964 45.6022L39.9982 45.6021L39.9995 45.6022L40.0013 45.6021L40.0031 45.6022C43.2852 45.6047 46.4509 44.3868 48.8849 42.185C48.9015 42.185 48.9015 42.1686 48.918 42.1686C48.9298 42.1552 48.9425 42.1386 48.9543 42.1251C49.5149 41.5944 50.0367 41.0242 50.5156 40.4188L50.5159 40.4184L50.518 40.4188C52.9954 40.914 60.8532 41.1781 64.2538 38.4213C64.7655 38.0086 57.4691 12.7349 54.6792 7.96413C53.6412 6.19196 52.1845 4.70126 50.4368 3.62254C47.4654 1.80671 43.9161 1.27844 40.4826 1.27844H40.1524C40.1033 1.27985 40.0497 1.28348 40.0001 1.28509C39.9506 1.28348 39.897 1.27985 39.8479 1.27844H39.5177C36.0841 1.27844 32.5349 1.80671 29.5635 3.62254C27.8157 4.70125 26.359 6.19195 25.3209 7.96414C22.5311 12.735 15.2346 38.0086 15.7463 38.4213C19.1469 41.1781 27.0047 40.914 29.4809 40.4188Z" fill="#ABABAB"/>
</svg>
