<svg width="80" height="28" viewBox="0 0 80 28" fill="none" xmlns="http://www.w3.org/2000/svg">
<g clip-path="url(#clip0_151_11)">
<path d="M41.3741 8.89118C41.3284 12.5909 44.5811 14.6557 47.0314 15.8832C49.549 17.1428 50.3946 17.9504 50.385 19.0766C50.3657 20.8005 48.3767 21.5612 46.5149 21.5908C43.2671 21.6427 41.3789 20.6894 39.8775 19.9682L38.7076 25.5968C40.2138 26.3106 43.0028 26.933 45.8951 26.9602C52.6839 26.9602 57.1257 23.5148 57.1497 18.1727C57.1761 11.3931 48.0283 11.0177 48.0908 7.98724C48.1124 7.06847 48.9652 6.08797 50.8342 5.83852C51.7591 5.71256 54.3127 5.61624 57.2074 6.98697L58.3436 1.54108C56.787 0.95821 54.7859 0.400036 52.2948 0.400036C45.9047 0.400036 41.4101 3.89232 41.3741 8.89118ZM69.2619 0.869295C68.0223 0.869295 66.9774 1.6127 66.5113 2.75375L56.8134 26.5601H63.5974L64.9474 22.7245H73.2376L74.0208 26.5601H80L74.7823 0.869295H69.2619ZM70.2108 7.80941L72.1686 17.4564H66.8068L70.2108 7.80941ZM33.1488 0.869295L27.8013 26.5601H34.2658L39.6108 0.869295H33.1488ZM23.5854 0.869295L16.8566 18.3554L14.1349 3.48728C13.8154 1.82758 12.5542 0.869295 11.1537 0.869295H0.153745L0 1.61517C2.25812 2.11901 4.82373 2.93157 6.378 3.80094C7.32929 4.33195 7.60074 4.79626 7.91304 6.05833L13.0683 26.5601H19.9003L30.3742 0.869295H23.5854Z" fill="url(#paint0_linear_151_11)"/>
</g>
<defs>
<linearGradient id="paint0_linear_151_11" x1="36.7794" y1="27.493" x2="37.5697" y2="0.216567" gradientUnits="userSpaceOnUse">
<stop stop-color="#222357"/>
<stop offset="1" stop-color="#254AA5"/>
</linearGradient>
<clipPath id="clip0_151_11">
<rect width="80" height="26.6667" fill="white" transform="translate(0 0.400002)"/>
</clipPath>
</defs>
</svg>
