<svg width="80" height="80" viewBox="0 0 80 80" fill="none" xmlns="http://www.w3.org/2000/svg">
<path d="M68.2812 65.7812C69.5767 65.7812 70.625 64.733 70.625 63.4375V7.1875C70.625 5.89203 69.5767 4.84375 68.2812 4.84375C66.9858 4.84375 65.9375 5.89203 65.9375 7.1875V10.2219L32.8125 21.9223V48.7027L65.9375 60.4031V63.4375C65.9375 64.733 66.9858 65.7812 68.2812 65.7812Z" fill="#BBC0C5"/>
<path d="M14.0625 51.7188V72.8125C14.0625 74.108 15.1108 75.1562 16.4062 75.1562H21.0938C22.3892 75.1562 23.4375 74.108 23.4375 72.8125V61.0938H25.7812C29.6584 61.0938 32.8125 57.9397 32.8125 54.0625V51.7188H28.125V54.0625C28.125 55.3556 27.0744 56.4062 25.7812 56.4062H23.4375V51.7188H14.0625Z" fill="#BBC0C5"/>
<path d="M78.7045 28.5285L75.3125 26.8325V43.7927L78.7045 42.0967C79.4988 41.6983 80 40.8881 80 40V30.625C80 29.7369 79.4988 28.9267 78.7045 28.5285Z" fill="#BBC0C5"/>
<path d="M11.7188 47.0312H28.125V23.5938H11.7188C5.25734 23.5938 0 28.8511 0 35.3125C0 41.7739 5.25734 47.0312 11.7188 47.0312Z" fill="#BBC0C5"/>
</svg>
